<mxfile host="app.diagrams.net" modified="2023-03-21T05:53:14.557Z" agent="5.0 (Macintosh; Intel Mac OS X 10_15_7) AppleWebKit/537.36 (KHTML, like Gecko) Chrome/109.0.0.0 Safari/537.36" etag="LhlIZjaZkHFLY-yjA6Cs" version="21.0.6" type="github" pages="2">
  <diagram id="abgi5sLwtv3DK6LEykcX" name="第 1 页">
    <mxGraphModel dx="1434" dy="796" grid="1" gridSize="10" guides="1" tooltips="1" connect="1" arrows="1" fold="1" page="1" pageScale="1" pageWidth="827" pageHeight="1169" math="0" shadow="0">
      <root>
        <mxCell id="0" />
        <mxCell id="1" parent="0" />
        <mxCell id="BQN3SQX16AR6AJt2HowC-1" value="S0070916" style="shape=umlLifeline;perimeter=lifelinePerimeter;whiteSpace=wrap;html=1;container=1;collapsible=0;recursiveResize=0;outlineConnect=0;" parent="1" vertex="1">
          <mxGeometry x="60" y="20" width="100" height="3280" as="geometry" />
        </mxCell>
        <mxCell id="BQN3SQX16AR6AJt2HowC-4" value="" style="html=1;points=[];perimeter=orthogonalPerimeter;" parent="BQN3SQX16AR6AJt2HowC-1" vertex="1">
          <mxGeometry x="45" y="70" width="10" height="3210" as="geometry" />
        </mxCell>
        <mxCell id="BQN3SQX16AR6AJt2HowC-5" value="" style="html=1;points=[];perimeter=orthogonalPerimeter;" parent="BQN3SQX16AR6AJt2HowC-1" vertex="1">
          <mxGeometry x="50" y="100" width="10" height="80" as="geometry" />
        </mxCell>
        <mxCell id="BQN3SQX16AR6AJt2HowC-6" value="startProcess()" style="edgeStyle=orthogonalEdgeStyle;html=1;align=left;spacingLeft=2;endArrow=block;rounded=0;entryX=1;entryY=0;" parent="BQN3SQX16AR6AJt2HowC-1" target="BQN3SQX16AR6AJt2HowC-5" edge="1">
          <mxGeometry relative="1" as="geometry">
            <mxPoint x="55" y="80" as="sourcePoint" />
            <Array as="points">
              <mxPoint x="85" y="80" />
            </Array>
          </mxGeometry>
        </mxCell>
        <mxCell id="BQN3SQX16AR6AJt2HowC-7" value="" style="html=1;points=[];perimeter=orthogonalPerimeter;" parent="BQN3SQX16AR6AJt2HowC-1" vertex="1">
          <mxGeometry x="55" y="130" width="10" height="40" as="geometry" />
        </mxCell>
        <mxCell id="BQN3SQX16AR6AJt2HowC-8" value="property设置属性funcno为’s0070916‘" style="edgeStyle=orthogonalEdgeStyle;html=1;align=left;spacingLeft=2;endArrow=block;rounded=0;entryX=1;entryY=0;" parent="BQN3SQX16AR6AJt2HowC-1" target="BQN3SQX16AR6AJt2HowC-7" edge="1">
          <mxGeometry relative="1" as="geometry">
            <mxPoint x="60" y="110" as="sourcePoint" />
            <Array as="points">
              <mxPoint x="90" y="110" />
            </Array>
          </mxGeometry>
        </mxCell>
        <mxCell id="BQN3SQX16AR6AJt2HowC-11" value="" style="html=1;points=[];perimeter=orthogonalPerimeter;fillColor=#ffe6cc;strokeColor=#d79b00;" parent="BQN3SQX16AR6AJt2HowC-1" vertex="1">
          <mxGeometry x="50" y="320" width="10" height="2940" as="geometry" />
        </mxCell>
        <mxCell id="BQN3SQX16AR6AJt2HowC-12" value="signCheck()签约路由前置处理,判断是否需要进行签约" style="edgeStyle=orthogonalEdgeStyle;html=1;align=left;spacingLeft=2;endArrow=block;rounded=0;entryX=1;entryY=0;" parent="BQN3SQX16AR6AJt2HowC-1" target="BQN3SQX16AR6AJt2HowC-11" edge="1">
          <mxGeometry relative="1" as="geometry">
            <mxPoint x="55" y="300" as="sourcePoint" />
            <Array as="points">
              <mxPoint x="85" y="300" />
            </Array>
          </mxGeometry>
        </mxCell>
        <mxCell id="wPj87sgsE2ywRhPkub4z-11" value="签约四要素" style="html=1;verticalAlign=bottom;startArrow=oval;startFill=1;endArrow=block;startSize=8;rounded=0;" parent="BQN3SQX16AR6AJt2HowC-1" target="wPj87sgsE2ywRhPkub4z-8" edge="1">
          <mxGeometry width="60" relative="1" as="geometry">
            <mxPoint x="60" y="370" as="sourcePoint" />
            <mxPoint x="120" y="370" as="targetPoint" />
          </mxGeometry>
        </mxCell>
        <mxCell id="wPj87sgsE2ywRhPkub4z-18" value="" style="html=1;points=[];perimeter=orthogonalPerimeter;" parent="BQN3SQX16AR6AJt2HowC-1" vertex="1">
          <mxGeometry x="55" y="620" width="10" height="100" as="geometry" />
        </mxCell>
        <mxCell id="wPj87sgsE2ywRhPkub4z-19" value="判断已签约列表渠道与签约支持的渠道列表相同" style="edgeStyle=orthogonalEdgeStyle;html=1;align=left;spacingLeft=2;endArrow=block;rounded=0;entryX=1;entryY=0;" parent="BQN3SQX16AR6AJt2HowC-1" target="wPj87sgsE2ywRhPkub4z-18" edge="1">
          <mxGeometry relative="1" as="geometry">
            <mxPoint x="60" y="600" as="sourcePoint" />
            <Array as="points">
              <mxPoint x="90" y="600" />
            </Array>
          </mxGeometry>
        </mxCell>
        <mxCell id="wPj87sgsE2ywRhPkub4z-20" value="" style="html=1;points=[];perimeter=orthogonalPerimeter;" parent="BQN3SQX16AR6AJt2HowC-1" vertex="1">
          <mxGeometry x="60" y="660" width="10" height="40" as="geometry" />
        </mxCell>
        <mxCell id="wPj87sgsE2ywRhPkub4z-21" value="方法结束,返回无需签约,无需路由" style="edgeStyle=orthogonalEdgeStyle;html=1;align=left;spacingLeft=2;endArrow=block;rounded=0;entryX=1;entryY=0;" parent="BQN3SQX16AR6AJt2HowC-1" target="wPj87sgsE2ywRhPkub4z-20" edge="1">
          <mxGeometry relative="1" as="geometry">
            <mxPoint x="65" y="640" as="sourcePoint" />
            <Array as="points">
              <mxPoint x="95" y="640" />
            </Array>
          </mxGeometry>
        </mxCell>
        <mxCell id="wPj87sgsE2ywRhPkub4z-27" value="" style="html=1;points=[];perimeter=orthogonalPerimeter;" parent="BQN3SQX16AR6AJt2HowC-1" vertex="1">
          <mxGeometry x="55" y="860" width="10" height="110" as="geometry" />
        </mxCell>
        <mxCell id="wPj87sgsE2ywRhPkub4z-28" value="如果开启状态渠道数量List&amp;lt;Tab_ipp_chnl&amp;gt;为空" style="edgeStyle=orthogonalEdgeStyle;html=1;align=left;spacingLeft=2;endArrow=block;rounded=0;entryX=1;entryY=0;" parent="BQN3SQX16AR6AJt2HowC-1" target="wPj87sgsE2ywRhPkub4z-27" edge="1">
          <mxGeometry relative="1" as="geometry">
            <mxPoint x="60" y="840" as="sourcePoint" />
            <Array as="points">
              <mxPoint x="90" y="840" />
            </Array>
          </mxGeometry>
        </mxCell>
        <mxCell id="wPj87sgsE2ywRhPkub4z-29" value="" style="html=1;points=[];perimeter=orthogonalPerimeter;" parent="BQN3SQX16AR6AJt2HowC-1" vertex="1">
          <mxGeometry x="60" y="910" width="10" height="40" as="geometry" />
        </mxCell>
        <mxCell id="wPj87sgsE2ywRhPkub4z-30" value="方法直接抛出异常(&#39;007.Pay.E0052&#39;,&#39;签约暂无通道可支持&#39;)" style="edgeStyle=orthogonalEdgeStyle;html=1;align=left;spacingLeft=2;endArrow=block;rounded=0;entryX=1;entryY=0;" parent="BQN3SQX16AR6AJt2HowC-1" target="wPj87sgsE2ywRhPkub4z-29" edge="1">
          <mxGeometry relative="1" as="geometry">
            <mxPoint x="65" y="890" as="sourcePoint" />
            <Array as="points">
              <mxPoint x="95" y="890" />
            </Array>
          </mxGeometry>
        </mxCell>
        <mxCell id="wPj87sgsE2ywRhPkub4z-33" value="" style="html=1;points=[];perimeter=orthogonalPerimeter;" parent="BQN3SQX16AR6AJt2HowC-1" vertex="1">
          <mxGeometry x="55" y="1040" width="10" height="2210" as="geometry" />
        </mxCell>
        <mxCell id="wPj87sgsE2ywRhPkub4z-34" value="判断四要素已签约记录列表是否为空" style="edgeStyle=orthogonalEdgeStyle;html=1;align=left;spacingLeft=2;endArrow=block;rounded=0;entryX=1;entryY=0;" parent="BQN3SQX16AR6AJt2HowC-1" target="wPj87sgsE2ywRhPkub4z-33" edge="1">
          <mxGeometry relative="1" as="geometry">
            <mxPoint x="60" y="1020" as="sourcePoint" />
            <Array as="points">
              <mxPoint x="90" y="1020" />
            </Array>
          </mxGeometry>
        </mxCell>
        <mxCell id="wPj87sgsE2ywRhPkub4z-35" value="" style="html=1;points=[];perimeter=orthogonalPerimeter;fillColor=#f8cecc;strokeColor=#b85450;" parent="BQN3SQX16AR6AJt2HowC-1" vertex="1">
          <mxGeometry x="60" y="1090" width="10" height="1590" as="geometry" />
        </mxCell>
        <mxCell id="wPj87sgsE2ywRhPkub4z-36" value="存在已签约记录" style="edgeStyle=orthogonalEdgeStyle;html=1;align=left;spacingLeft=2;endArrow=block;rounded=0;entryX=1;entryY=0;" parent="BQN3SQX16AR6AJt2HowC-1" target="wPj87sgsE2ywRhPkub4z-35" edge="1">
          <mxGeometry relative="1" as="geometry">
            <mxPoint x="65" y="1070" as="sourcePoint" />
            <Array as="points">
              <mxPoint x="95" y="1070" />
            </Array>
          </mxGeometry>
        </mxCell>
        <mxCell id="wPj87sgsE2ywRhPkub4z-45" value="" style="html=1;points=[];perimeter=orthogonalPerimeter;" parent="BQN3SQX16AR6AJt2HowC-1" vertex="1">
          <mxGeometry x="65" y="1250" width="10" height="1410" as="geometry" />
        </mxCell>
        <mxCell id="wPj87sgsE2ywRhPkub4z-46" value="判断是否需要尝试签约新渠道flag" style="edgeStyle=orthogonalEdgeStyle;html=1;align=left;spacingLeft=2;endArrow=block;rounded=0;entryX=1;entryY=0;" parent="BQN3SQX16AR6AJt2HowC-1" target="wPj87sgsE2ywRhPkub4z-45" edge="1">
          <mxGeometry relative="1" as="geometry">
            <mxPoint x="70" y="1230" as="sourcePoint" />
            <Array as="points">
              <mxPoint x="100" y="1230" />
            </Array>
          </mxGeometry>
        </mxCell>
        <mxCell id="wPj87sgsE2ywRhPkub4z-47" value="" style="html=1;points=[];perimeter=orthogonalPerimeter;" parent="BQN3SQX16AR6AJt2HowC-1" vertex="1">
          <mxGeometry x="70" y="1290" width="10" height="660" as="geometry" />
        </mxCell>
        <mxCell id="wPj87sgsE2ywRhPkub4z-48" value="是需要尝试签约新渠道" style="edgeStyle=orthogonalEdgeStyle;html=1;align=left;spacingLeft=2;endArrow=block;rounded=0;entryX=1;entryY=0;" parent="BQN3SQX16AR6AJt2HowC-1" target="wPj87sgsE2ywRhPkub4z-47" edge="1">
          <mxGeometry relative="1" as="geometry">
            <mxPoint x="75" y="1270" as="sourcePoint" />
            <Array as="points">
              <mxPoint x="105" y="1270" />
            </Array>
          </mxGeometry>
        </mxCell>
        <mxCell id="wPj87sgsE2ywRhPkub4z-49" value="" style="html=1;points=[];perimeter=orthogonalPerimeter;" parent="BQN3SQX16AR6AJt2HowC-1" vertex="1">
          <mxGeometry x="75" y="1330" width="10" height="40" as="geometry" />
        </mxCell>
        <mxCell id="wPj87sgsE2ywRhPkub4z-50" value="如果signChnlList为空(这个字段含义不明),则方法结束，无需路由,需要签约" style="edgeStyle=orthogonalEdgeStyle;html=1;align=left;spacingLeft=2;endArrow=block;rounded=0;entryX=1;entryY=0;" parent="BQN3SQX16AR6AJt2HowC-1" target="wPj87sgsE2ywRhPkub4z-49" edge="1">
          <mxGeometry relative="1" as="geometry">
            <mxPoint x="80" y="1310" as="sourcePoint" />
            <Array as="points">
              <mxPoint x="110" y="1310" />
            </Array>
          </mxGeometry>
        </mxCell>
        <mxCell id="wPj87sgsE2ywRhPkub4z-76" value="" style="html=1;points=[];perimeter=orthogonalPerimeter;" parent="BQN3SQX16AR6AJt2HowC-1" vertex="1">
          <mxGeometry x="75" y="1530" width="10" height="190" as="geometry" />
        </mxCell>
        <mxCell id="wPj87sgsE2ywRhPkub4z-77" value="&lt;span style=&quot;text-align: center;&quot;&gt;签约银行支持的渠道列表为空&lt;/span&gt;" style="edgeStyle=orthogonalEdgeStyle;html=1;align=left;spacingLeft=2;endArrow=block;rounded=0;entryX=1;entryY=0;" parent="BQN3SQX16AR6AJt2HowC-1" target="wPj87sgsE2ywRhPkub4z-76" edge="1">
          <mxGeometry relative="1" as="geometry">
            <mxPoint x="80" y="1510" as="sourcePoint" />
            <Array as="points">
              <mxPoint x="110" y="1510" />
            </Array>
          </mxGeometry>
        </mxCell>
        <mxCell id="wPj87sgsE2ywRhPkub4z-78" value="" style="html=1;points=[];perimeter=orthogonalPerimeter;" parent="BQN3SQX16AR6AJt2HowC-1" vertex="1">
          <mxGeometry x="80" y="1565" width="10" height="75" as="geometry" />
        </mxCell>
        <mxCell id="wPj87sgsE2ywRhPkub4z-79" value="如果已签约并且开启的渠道为空" style="edgeStyle=orthogonalEdgeStyle;html=1;align=left;spacingLeft=2;endArrow=block;rounded=0;entryX=1;entryY=0;" parent="BQN3SQX16AR6AJt2HowC-1" target="wPj87sgsE2ywRhPkub4z-78" edge="1">
          <mxGeometry relative="1" as="geometry">
            <mxPoint x="85" y="1545" as="sourcePoint" />
            <Array as="points">
              <mxPoint x="115" y="1545" />
            </Array>
          </mxGeometry>
        </mxCell>
        <mxCell id="wPj87sgsE2ywRhPkub4z-80" value="" style="html=1;points=[];perimeter=orthogonalPerimeter;" parent="BQN3SQX16AR6AJt2HowC-1" vertex="1">
          <mxGeometry x="85" y="1595" width="10" height="40" as="geometry" />
        </mxCell>
        <mxCell id="wPj87sgsE2ywRhPkub4z-81" value="方法直接抛出异常(&#39;007.Pay.E0052&#39;,&#39;签约暂无通道可支持&#39;)" style="edgeStyle=orthogonalEdgeStyle;html=1;align=left;spacingLeft=2;endArrow=block;rounded=0;entryX=1;entryY=0;" parent="BQN3SQX16AR6AJt2HowC-1" target="wPj87sgsE2ywRhPkub4z-80" edge="1">
          <mxGeometry relative="1" as="geometry">
            <mxPoint x="90" y="1575" as="sourcePoint" />
            <Array as="points">
              <mxPoint x="120" y="1575" />
            </Array>
          </mxGeometry>
        </mxCell>
        <mxCell id="wPj87sgsE2ywRhPkub4z-82" value="" style="html=1;points=[];perimeter=orthogonalPerimeter;" parent="BQN3SQX16AR6AJt2HowC-1" vertex="1">
          <mxGeometry x="80" y="1670" width="10" height="40" as="geometry" />
        </mxCell>
        <mxCell id="wPj87sgsE2ywRhPkub4z-83" value="设置property信息，无需路由,需要签约，整个方法signCheck方法结束" style="edgeStyle=orthogonalEdgeStyle;html=1;align=left;spacingLeft=2;endArrow=block;rounded=0;entryX=1;entryY=0;" parent="BQN3SQX16AR6AJt2HowC-1" target="wPj87sgsE2ywRhPkub4z-82" edge="1">
          <mxGeometry relative="1" as="geometry">
            <mxPoint x="85" y="1650" as="sourcePoint" />
            <Array as="points">
              <mxPoint x="115" y="1650" />
            </Array>
          </mxGeometry>
        </mxCell>
        <mxCell id="wPj87sgsE2ywRhPkub4z-84" value="" style="html=1;points=[];perimeter=orthogonalPerimeter;" parent="BQN3SQX16AR6AJt2HowC-1" vertex="1">
          <mxGeometry x="75" y="1754" width="10" height="176" as="geometry" />
        </mxCell>
        <mxCell id="wPj87sgsE2ywRhPkub4z-85" value="签约银行支持的渠道列表不为空" style="edgeStyle=orthogonalEdgeStyle;html=1;align=left;spacingLeft=2;endArrow=block;rounded=0;entryX=1;entryY=0;" parent="BQN3SQX16AR6AJt2HowC-1" target="wPj87sgsE2ywRhPkub4z-84" edge="1">
          <mxGeometry relative="1" as="geometry">
            <mxPoint x="80" y="1734" as="sourcePoint" />
            <Array as="points">
              <mxPoint x="110" y="1734" />
            </Array>
          </mxGeometry>
        </mxCell>
        <mxCell id="wPj87sgsE2ywRhPkub4z-86" value="" style="html=1;points=[];perimeter=orthogonalPerimeter;" parent="BQN3SQX16AR6AJt2HowC-1" vertex="1">
          <mxGeometry x="80" y="1790" width="10" height="40" as="geometry" />
        </mxCell>
        <mxCell id="wPj87sgsE2ywRhPkub4z-87" value="选择优先级最高的已签约的可用状态的通道&lt;br&gt;prpperty.setUsedsignedChnlList&lt;br&gt;&lt;span style=&quot;font-size: 11px;&quot;&gt;property是否增加签约标志设置为是&lt;/span&gt;" style="edgeStyle=orthogonalEdgeStyle;html=1;align=left;spacingLeft=2;endArrow=block;rounded=0;entryX=1;entryY=0;" parent="BQN3SQX16AR6AJt2HowC-1" target="wPj87sgsE2ywRhPkub4z-86" edge="1">
          <mxGeometry relative="1" as="geometry">
            <mxPoint x="85" y="1770" as="sourcePoint" />
            <Array as="points">
              <mxPoint x="115" y="1770" />
            </Array>
          </mxGeometry>
        </mxCell>
        <mxCell id="wPj87sgsE2ywRhPkub4z-88" value="" style="html=1;points=[];perimeter=orthogonalPerimeter;" parent="BQN3SQX16AR6AJt2HowC-1" vertex="1">
          <mxGeometry x="80" y="1870" width="10" height="40" as="geometry" />
        </mxCell>
        <mxCell id="wPj87sgsE2ywRhPkub4z-89" value="property.setIsRouter(Yes) 需要路由，方法结束" style="edgeStyle=orthogonalEdgeStyle;html=1;align=left;spacingLeft=2;endArrow=block;rounded=0;entryX=1;entryY=0;" parent="BQN3SQX16AR6AJt2HowC-1" target="wPj87sgsE2ywRhPkub4z-88" edge="1">
          <mxGeometry relative="1" as="geometry">
            <mxPoint x="85" y="1850" as="sourcePoint" />
            <Array as="points">
              <mxPoint x="115" y="1850" />
            </Array>
          </mxGeometry>
        </mxCell>
        <mxCell id="wPj87sgsE2ywRhPkub4z-90" value="" style="html=1;points=[];perimeter=orthogonalPerimeter;" parent="BQN3SQX16AR6AJt2HowC-1" vertex="1">
          <mxGeometry x="70" y="1990" width="10" height="650" as="geometry" />
        </mxCell>
        <mxCell id="wPj87sgsE2ywRhPkub4z-91" value="尝试签约新渠道flag为false" style="edgeStyle=orthogonalEdgeStyle;html=1;align=left;spacingLeft=2;endArrow=block;rounded=0;entryX=1;entryY=0;" parent="BQN3SQX16AR6AJt2HowC-1" target="wPj87sgsE2ywRhPkub4z-90" edge="1">
          <mxGeometry relative="1" as="geometry">
            <mxPoint x="75" y="1970" as="sourcePoint" />
            <Array as="points">
              <mxPoint x="105" y="1970" />
            </Array>
          </mxGeometry>
        </mxCell>
        <mxCell id="wPj87sgsE2ywRhPkub4z-94" value="" style="html=1;points=[];perimeter=orthogonalPerimeter;" parent="BQN3SQX16AR6AJt2HowC-1" vertex="1">
          <mxGeometry x="75" y="2030" width="10" height="100" as="geometry" />
        </mxCell>
        <mxCell id="wPj87sgsE2ywRhPkub4z-95" value="如果已签约并且开启渠道列表不为空" style="edgeStyle=orthogonalEdgeStyle;html=1;align=left;spacingLeft=2;endArrow=block;rounded=0;entryX=1;entryY=0;" parent="BQN3SQX16AR6AJt2HowC-1" target="wPj87sgsE2ywRhPkub4z-94" edge="1">
          <mxGeometry relative="1" as="geometry">
            <mxPoint x="80" y="2010" as="sourcePoint" />
            <Array as="points">
              <mxPoint x="110" y="2010" />
            </Array>
          </mxGeometry>
        </mxCell>
        <mxCell id="wPj87sgsE2ywRhPkub4z-96" value="" style="html=1;points=[];perimeter=orthogonalPerimeter;" parent="BQN3SQX16AR6AJt2HowC-1" vertex="1">
          <mxGeometry x="80" y="2070" width="10" height="40" as="geometry" />
        </mxCell>
        <mxCell id="wPj87sgsE2ywRhPkub4z-97" value="存在有效的签约记录，已签约，无需路由，整个方法结束" style="edgeStyle=orthogonalEdgeStyle;html=1;align=left;spacingLeft=2;endArrow=block;rounded=0;entryX=1;entryY=0;" parent="BQN3SQX16AR6AJt2HowC-1" target="wPj87sgsE2ywRhPkub4z-96" edge="1">
          <mxGeometry relative="1" as="geometry">
            <mxPoint x="85" y="2050" as="sourcePoint" />
            <Array as="points">
              <mxPoint x="115" y="2050" />
            </Array>
          </mxGeometry>
        </mxCell>
        <mxCell id="wPj87sgsE2ywRhPkub4z-98" value="" style="html=1;points=[];perimeter=orthogonalPerimeter;" parent="BQN3SQX16AR6AJt2HowC-1" vertex="1">
          <mxGeometry x="75" y="2170" width="10" height="380" as="geometry" />
        </mxCell>
        <mxCell id="wPj87sgsE2ywRhPkub4z-99" value="如果已签约并且开启状态渠道列表为空" style="edgeStyle=orthogonalEdgeStyle;html=1;align=left;spacingLeft=2;endArrow=block;rounded=0;entryX=1;entryY=0;" parent="BQN3SQX16AR6AJt2HowC-1" target="wPj87sgsE2ywRhPkub4z-98" edge="1">
          <mxGeometry relative="1" as="geometry">
            <mxPoint x="80" y="2150" as="sourcePoint" />
            <Array as="points">
              <mxPoint x="110" y="2150" />
            </Array>
          </mxGeometry>
        </mxCell>
        <mxCell id="wPj87sgsE2ywRhPkub4z-115" value="" style="html=1;points=[];perimeter=orthogonalPerimeter;" parent="BQN3SQX16AR6AJt2HowC-1" vertex="1">
          <mxGeometry x="60" y="2730" width="10" height="500" as="geometry" />
        </mxCell>
        <mxCell id="wPj87sgsE2ywRhPkub4z-116" value="不存在签约记录" style="edgeStyle=orthogonalEdgeStyle;html=1;align=left;spacingLeft=2;endArrow=block;rounded=0;entryX=1;entryY=0;" parent="BQN3SQX16AR6AJt2HowC-1" target="wPj87sgsE2ywRhPkub4z-115" edge="1">
          <mxGeometry relative="1" as="geometry">
            <mxPoint x="65" y="2710" as="sourcePoint" />
            <Array as="points">
              <mxPoint x="95" y="2710" />
            </Array>
          </mxGeometry>
        </mxCell>
        <mxCell id="wPj87sgsE2ywRhPkub4z-117" value="" style="html=1;points=[];perimeter=orthogonalPerimeter;" parent="BQN3SQX16AR6AJt2HowC-1" vertex="1">
          <mxGeometry x="65" y="2770" width="10" height="90" as="geometry" />
        </mxCell>
        <mxCell id="wPj87sgsE2ywRhPkub4z-118" value="如果可用状态渠道数量为1" style="edgeStyle=orthogonalEdgeStyle;html=1;align=left;spacingLeft=2;endArrow=block;rounded=0;entryX=1;entryY=0;" parent="BQN3SQX16AR6AJt2HowC-1" target="wPj87sgsE2ywRhPkub4z-117" edge="1">
          <mxGeometry relative="1" as="geometry">
            <mxPoint x="70" y="2750" as="sourcePoint" />
            <Array as="points">
              <mxPoint x="100" y="2750" />
            </Array>
          </mxGeometry>
        </mxCell>
        <mxCell id="wPj87sgsE2ywRhPkub4z-119" value="" style="html=1;points=[];perimeter=orthogonalPerimeter;" parent="BQN3SQX16AR6AJt2HowC-1" vertex="1">
          <mxGeometry x="70" y="2800" width="10" height="40" as="geometry" />
        </mxCell>
        <mxCell id="wPj87sgsE2ywRhPkub4z-120" value="无需路由，方法结束" style="edgeStyle=orthogonalEdgeStyle;html=1;align=left;spacingLeft=2;endArrow=block;rounded=0;entryX=1;entryY=0;" parent="BQN3SQX16AR6AJt2HowC-1" target="wPj87sgsE2ywRhPkub4z-119" edge="1">
          <mxGeometry relative="1" as="geometry">
            <mxPoint x="75" y="2780" as="sourcePoint" />
            <Array as="points">
              <mxPoint x="105" y="2780" />
            </Array>
          </mxGeometry>
        </mxCell>
        <mxCell id="wPj87sgsE2ywRhPkub4z-128" value="" style="html=1;points=[];perimeter=orthogonalPerimeter;" parent="BQN3SQX16AR6AJt2HowC-1" vertex="1">
          <mxGeometry x="65" y="2980" width="10" height="100" as="geometry" />
        </mxCell>
        <mxCell id="wPj87sgsE2ywRhPkub4z-129" value="&lt;span style=&quot;text-align: center;&quot;&gt;签约银行支持的渠道列表为空&lt;/span&gt;" style="edgeStyle=orthogonalEdgeStyle;html=1;align=left;spacingLeft=2;endArrow=block;rounded=0;entryX=1;entryY=0;" parent="BQN3SQX16AR6AJt2HowC-1" target="wPj87sgsE2ywRhPkub4z-128" edge="1">
          <mxGeometry relative="1" as="geometry">
            <mxPoint x="70" y="2960" as="sourcePoint" />
            <Array as="points">
              <mxPoint x="100" y="2960" />
            </Array>
          </mxGeometry>
        </mxCell>
        <mxCell id="wPj87sgsE2ywRhPkub4z-132" value="" style="html=1;points=[];perimeter=orthogonalPerimeter;" parent="BQN3SQX16AR6AJt2HowC-1" vertex="1">
          <mxGeometry x="70" y="3020" width="10" height="40" as="geometry" />
        </mxCell>
        <mxCell id="wPj87sgsE2ywRhPkub4z-133" value="无需路由，方法结束" style="edgeStyle=orthogonalEdgeStyle;html=1;align=left;spacingLeft=2;endArrow=block;rounded=0;entryX=1;entryY=0;" parent="BQN3SQX16AR6AJt2HowC-1" target="wPj87sgsE2ywRhPkub4z-132" edge="1">
          <mxGeometry relative="1" as="geometry">
            <mxPoint x="75" y="3000" as="sourcePoint" />
            <Array as="points">
              <mxPoint x="105" y="3000" />
            </Array>
          </mxGeometry>
        </mxCell>
        <mxCell id="wPj87sgsE2ywRhPkub4z-134" value="" style="html=1;points=[];perimeter=orthogonalPerimeter;" parent="BQN3SQX16AR6AJt2HowC-1" vertex="1">
          <mxGeometry x="65" y="3110" width="10" height="40" as="geometry" />
        </mxCell>
        <mxCell id="wPj87sgsE2ywRhPkub4z-135" value="需要路由" style="edgeStyle=orthogonalEdgeStyle;html=1;align=left;spacingLeft=2;endArrow=block;rounded=0;entryX=1;entryY=0;" parent="BQN3SQX16AR6AJt2HowC-1" target="wPj87sgsE2ywRhPkub4z-134" edge="1">
          <mxGeometry relative="1" as="geometry">
            <mxPoint x="70" y="3090" as="sourcePoint" />
            <Array as="points">
              <mxPoint x="100" y="3090" />
            </Array>
          </mxGeometry>
        </mxCell>
        <mxCell id="wPj87sgsE2ywRhPkub4z-136" value="" style="html=1;points=[];perimeter=orthogonalPerimeter;" parent="BQN3SQX16AR6AJt2HowC-1" vertex="1">
          <mxGeometry x="80" y="2350" width="10" height="80" as="geometry" />
        </mxCell>
        <mxCell id="wPj87sgsE2ywRhPkub4z-137" value="&lt;span style=&quot;text-align: center;&quot;&gt;签约银行支持的渠道列表为空&lt;/span&gt;" style="edgeStyle=orthogonalEdgeStyle;html=1;align=left;spacingLeft=2;endArrow=block;rounded=0;entryX=1;entryY=0;" parent="BQN3SQX16AR6AJt2HowC-1" target="wPj87sgsE2ywRhPkub4z-136" edge="1">
          <mxGeometry relative="1" as="geometry">
            <mxPoint x="85" y="2330" as="sourcePoint" />
            <Array as="points">
              <mxPoint x="115" y="2330" />
            </Array>
          </mxGeometry>
        </mxCell>
        <mxCell id="wPj87sgsE2ywRhPkub4z-138" value="" style="html=1;points=[];perimeter=orthogonalPerimeter;" parent="BQN3SQX16AR6AJt2HowC-1" vertex="1">
          <mxGeometry x="85" y="2380" width="10" height="40" as="geometry" />
        </mxCell>
        <mxCell id="wPj87sgsE2ywRhPkub4z-139" value="方法直接抛出异常(&#39;007.Pay.E0052&#39;,&#39;签约暂无通道可支持&#39;)" style="edgeStyle=orthogonalEdgeStyle;html=1;align=left;spacingLeft=2;endArrow=block;rounded=0;entryX=1;entryY=0;" parent="BQN3SQX16AR6AJt2HowC-1" target="wPj87sgsE2ywRhPkub4z-138" edge="1">
          <mxGeometry relative="1" as="geometry">
            <mxPoint x="90" y="2360" as="sourcePoint" />
            <Array as="points">
              <mxPoint x="120" y="2360" />
            </Array>
          </mxGeometry>
        </mxCell>
        <mxCell id="wPj87sgsE2ywRhPkub4z-140" value="" style="html=1;points=[];perimeter=orthogonalPerimeter;" parent="BQN3SQX16AR6AJt2HowC-1" vertex="1">
          <mxGeometry x="80" y="2470" width="10" height="40" as="geometry" />
        </mxCell>
        <mxCell id="wPj87sgsE2ywRhPkub4z-141" value="需要路由" style="edgeStyle=orthogonalEdgeStyle;html=1;align=left;spacingLeft=2;endArrow=block;rounded=0;entryX=1;entryY=0;" parent="BQN3SQX16AR6AJt2HowC-1" target="wPj87sgsE2ywRhPkub4z-140" edge="1">
          <mxGeometry relative="1" as="geometry">
            <mxPoint x="85" y="2450" as="sourcePoint" />
            <Array as="points">
              <mxPoint x="115" y="2450" />
            </Array>
          </mxGeometry>
        </mxCell>
        <mxCell id="wPj87sgsE2ywRhPkub4z-7" value="PaymentDao" style="shape=umlLifeline;perimeter=lifelinePerimeter;whiteSpace=wrap;html=1;container=1;collapsible=0;recursiveResize=0;outlineConnect=0;" parent="1" vertex="1">
          <mxGeometry x="364" y="20" width="100" height="1540" as="geometry" />
        </mxCell>
        <mxCell id="wPj87sgsE2ywRhPkub4z-8" value="" style="html=1;points=[];perimeter=orthogonalPerimeter;" parent="wPj87sgsE2ywRhPkub4z-7" vertex="1">
          <mxGeometry x="45" y="360" width="10" height="80" as="geometry" />
        </mxCell>
        <mxCell id="wPj87sgsE2ywRhPkub4z-9" value="" style="html=1;points=[];perimeter=orthogonalPerimeter;" parent="wPj87sgsE2ywRhPkub4z-7" vertex="1">
          <mxGeometry x="50" y="390" width="10" height="40" as="geometry" />
        </mxCell>
        <mxCell id="wPj87sgsE2ywRhPkub4z-10" value="根据四要素查询已签约记录列表ipp_sign_msg" style="edgeStyle=orthogonalEdgeStyle;html=1;align=left;spacingLeft=2;endArrow=block;rounded=0;entryX=1;entryY=0;" parent="wPj87sgsE2ywRhPkub4z-7" target="wPj87sgsE2ywRhPkub4z-9" edge="1">
          <mxGeometry relative="1" as="geometry">
            <mxPoint x="55" y="370" as="sourcePoint" />
            <Array as="points">
              <mxPoint x="85" y="370" />
            </Array>
          </mxGeometry>
        </mxCell>
        <mxCell id="wPj87sgsE2ywRhPkub4z-13" value="" style="html=1;points=[];perimeter=orthogonalPerimeter;" parent="wPj87sgsE2ywRhPkub4z-7" vertex="1">
          <mxGeometry x="45" y="485" width="10" height="80" as="geometry" />
        </mxCell>
        <mxCell id="wPj87sgsE2ywRhPkub4z-16" value="" style="html=1;points=[];perimeter=orthogonalPerimeter;" parent="wPj87sgsE2ywRhPkub4z-7" vertex="1">
          <mxGeometry x="50" y="515" width="10" height="40" as="geometry" />
        </mxCell>
        <mxCell id="wPj87sgsE2ywRhPkub4z-17" value="查询ipp_bkfc" style="edgeStyle=orthogonalEdgeStyle;html=1;align=left;spacingLeft=2;endArrow=block;rounded=0;entryX=1;entryY=0;" parent="wPj87sgsE2ywRhPkub4z-7" target="wPj87sgsE2ywRhPkub4z-16" edge="1">
          <mxGeometry relative="1" as="geometry">
            <mxPoint x="55" y="495" as="sourcePoint" />
            <Array as="points">
              <mxPoint x="85" y="495" />
            </Array>
          </mxGeometry>
        </mxCell>
        <mxCell id="wPj87sgsE2ywRhPkub4z-22" value="" style="html=1;points=[];perimeter=orthogonalPerimeter;" parent="wPj87sgsE2ywRhPkub4z-7" vertex="1">
          <mxGeometry x="45" y="740" width="10" height="80" as="geometry" />
        </mxCell>
        <mxCell id="wPj87sgsE2ywRhPkub4z-25" value="" style="html=1;points=[];perimeter=orthogonalPerimeter;" parent="wPj87sgsE2ywRhPkub4z-7" vertex="1">
          <mxGeometry x="50" y="770" width="10" height="40" as="geometry" />
        </mxCell>
        <mxCell id="wPj87sgsE2ywRhPkub4z-26" value="查询ipp_chnl表过滤出chnlst为&#39;1&#39;的" style="edgeStyle=orthogonalEdgeStyle;html=1;align=left;spacingLeft=2;endArrow=block;rounded=0;entryX=1;entryY=0;" parent="wPj87sgsE2ywRhPkub4z-7" target="wPj87sgsE2ywRhPkub4z-25" edge="1">
          <mxGeometry relative="1" as="geometry">
            <mxPoint x="55" y="750" as="sourcePoint" />
            <Array as="points">
              <mxPoint x="85" y="750" />
            </Array>
          </mxGeometry>
        </mxCell>
        <mxCell id="wPj87sgsE2ywRhPkub4z-12" value="return" style="html=1;verticalAlign=bottom;endArrow=open;dashed=1;endSize=8;rounded=0;" parent="1" source="wPj87sgsE2ywRhPkub4z-8" target="BQN3SQX16AR6AJt2HowC-11" edge="1">
          <mxGeometry relative="1" as="geometry">
            <mxPoint x="210" y="430" as="sourcePoint" />
            <mxPoint x="130" y="430" as="targetPoint" />
            <Array as="points">
              <mxPoint x="200" y="455" />
            </Array>
          </mxGeometry>
        </mxCell>
        <mxCell id="wPj87sgsE2ywRhPkub4z-14" value="根据funcno交易码查询s0070916支持的渠道列表" style="html=1;verticalAlign=bottom;endArrow=block;entryX=0;entryY=0;rounded=0;" parent="1" source="BQN3SQX16AR6AJt2HowC-11" target="wPj87sgsE2ywRhPkub4z-13" edge="1">
          <mxGeometry relative="1" as="geometry">
            <mxPoint x="215" y="505" as="sourcePoint" />
          </mxGeometry>
        </mxCell>
        <mxCell id="wPj87sgsE2ywRhPkub4z-15" value="return" style="html=1;verticalAlign=bottom;endArrow=open;dashed=1;endSize=8;exitX=0;exitY=0.95;rounded=0;" parent="1" source="wPj87sgsE2ywRhPkub4z-13" target="BQN3SQX16AR6AJt2HowC-11" edge="1">
          <mxGeometry relative="1" as="geometry">
            <mxPoint x="215" y="581" as="targetPoint" />
          </mxGeometry>
        </mxCell>
        <mxCell id="wPj87sgsE2ywRhPkub4z-23" value="获取签约支持渠道列表中渠道状态开启的渠道列表" style="html=1;verticalAlign=bottom;endArrow=block;entryX=0;entryY=0;rounded=0;" parent="1" source="BQN3SQX16AR6AJt2HowC-11" target="wPj87sgsE2ywRhPkub4z-22" edge="1">
          <mxGeometry relative="1" as="geometry">
            <mxPoint x="339" y="760" as="sourcePoint" />
          </mxGeometry>
        </mxCell>
        <mxCell id="wPj87sgsE2ywRhPkub4z-24" value="return List&amp;lt;Tab_ipp_chnl&amp;gt;" style="html=1;verticalAlign=bottom;endArrow=open;dashed=1;endSize=8;exitX=0;exitY=0.95;rounded=0;" parent="1" source="wPj87sgsE2ywRhPkub4z-22" target="BQN3SQX16AR6AJt2HowC-11" edge="1">
          <mxGeometry relative="1" as="geometry">
            <mxPoint x="339" y="836" as="targetPoint" />
          </mxGeometry>
        </mxCell>
        <mxCell id="wPj87sgsE2ywRhPkub4z-37" value="SignHandlerTools" style="shape=umlLifeline;perimeter=lifelinePerimeter;whiteSpace=wrap;html=1;container=1;collapsible=0;recursiveResize=0;outlineConnect=0;" parent="1" vertex="1">
          <mxGeometry x="540" y="20" width="100" height="1530" as="geometry" />
        </mxCell>
        <mxCell id="wPj87sgsE2ywRhPkub4z-40" value="" style="html=1;points=[];perimeter=orthogonalPerimeter;" parent="wPj87sgsE2ywRhPkub4z-37" vertex="1">
          <mxGeometry x="45" y="1110" width="10" height="90" as="geometry" />
        </mxCell>
        <mxCell id="wPj87sgsE2ywRhPkub4z-43" value="" style="html=1;points=[];perimeter=orthogonalPerimeter;" parent="wPj87sgsE2ywRhPkub4z-37" vertex="1">
          <mxGeometry x="50" y="1150" width="10" height="40" as="geometry" />
        </mxCell>
        <mxCell id="wPj87sgsE2ywRhPkub4z-44" value="根据四要素已签约列表最新签约的一条记录签约天数是否大于后台设置的签约成功天数(当前设置为2天)&lt;br&gt;true:表示是，false:表示否 ，true用于后续尝试签约新的渠道" style="edgeStyle=orthogonalEdgeStyle;html=1;align=left;spacingLeft=2;endArrow=block;rounded=0;entryX=1;entryY=0;" parent="wPj87sgsE2ywRhPkub4z-37" target="wPj87sgsE2ywRhPkub4z-43" edge="1">
          <mxGeometry relative="1" as="geometry">
            <mxPoint x="55" y="1130" as="sourcePoint" />
            <Array as="points">
              <mxPoint x="85" y="1130" />
            </Array>
          </mxGeometry>
        </mxCell>
        <mxCell id="wPj87sgsE2ywRhPkub4z-41" value="sginTimeHandle(四要素)" style="html=1;verticalAlign=bottom;endArrow=block;entryX=0;entryY=0;rounded=0;" parent="1" source="wPj87sgsE2ywRhPkub4z-35" target="wPj87sgsE2ywRhPkub4z-40" edge="1">
          <mxGeometry relative="1" as="geometry">
            <mxPoint x="515" y="1130" as="sourcePoint" />
          </mxGeometry>
        </mxCell>
        <mxCell id="wPj87sgsE2ywRhPkub4z-42" value="return boolean" style="html=1;verticalAlign=bottom;endArrow=open;dashed=1;endSize=8;exitX=0;exitY=0.95;rounded=0;" parent="1" source="wPj87sgsE2ywRhPkub4z-40" target="wPj87sgsE2ywRhPkub4z-35" edge="1">
          <mxGeometry relative="1" as="geometry">
            <mxPoint x="515" y="1206" as="targetPoint" />
          </mxGeometry>
        </mxCell>
        <mxCell id="wPj87sgsE2ywRhPkub4z-51" value="BizparaDao" style="shape=umlLifeline;perimeter=lifelinePerimeter;whiteSpace=wrap;html=1;container=1;collapsible=0;recursiveResize=0;outlineConnect=0;" parent="1" vertex="1">
          <mxGeometry x="700" y="20" width="160" height="4020" as="geometry" />
        </mxCell>
        <mxCell id="wPj87sgsE2ywRhPkub4z-52" value="" style="html=1;points=[];perimeter=orthogonalPerimeter;" parent="wPj87sgsE2ywRhPkub4z-51" vertex="1">
          <mxGeometry x="45" y="1430" width="10" height="70" as="geometry" />
        </mxCell>
        <mxCell id="wPj87sgsE2ywRhPkub4z-55" value="" style="html=1;points=[];perimeter=orthogonalPerimeter;" parent="wPj87sgsE2ywRhPkub4z-51" vertex="1">
          <mxGeometry x="50" y="1450" width="10" height="40" as="geometry" />
        </mxCell>
        <mxCell id="wPj87sgsE2ywRhPkub4z-56" value="ipp_chnl渠道表,ipp_bkfc银行交易渠道关系&lt;br&gt;表(50000多条)联合查询" style="edgeStyle=orthogonalEdgeStyle;html=1;align=left;spacingLeft=2;endArrow=block;rounded=0;entryX=1;entryY=0;" parent="wPj87sgsE2ywRhPkub4z-51" target="wPj87sgsE2ywRhPkub4z-55" edge="1">
          <mxGeometry relative="1" as="geometry">
            <mxPoint x="55" y="1440" as="sourcePoint" />
            <Array as="points">
              <mxPoint x="85" y="1440" />
            </Array>
          </mxGeometry>
        </mxCell>
        <mxCell id="wPj87sgsE2ywRhPkub4z-100" value="" style="html=1;points=[];perimeter=orthogonalPerimeter;" parent="wPj87sgsE2ywRhPkub4z-51" vertex="1">
          <mxGeometry x="45" y="2230" width="10" height="90" as="geometry" />
        </mxCell>
        <mxCell id="wPj87sgsE2ywRhPkub4z-105" value="" style="html=1;points=[];perimeter=orthogonalPerimeter;" parent="wPj87sgsE2ywRhPkub4z-51" vertex="1">
          <mxGeometry x="50" y="2270" width="10" height="40" as="geometry" />
        </mxCell>
        <mxCell id="wPj87sgsE2ywRhPkub4z-106" value="ipp_chnl渠道表,ipp_bkfc银行交易渠道关系&lt;br&gt;表(50000多条)联合查询" style="edgeStyle=orthogonalEdgeStyle;html=1;align=left;spacingLeft=2;endArrow=block;rounded=0;entryX=1;entryY=0;" parent="wPj87sgsE2ywRhPkub4z-51" target="wPj87sgsE2ywRhPkub4z-105" edge="1">
          <mxGeometry relative="1" as="geometry">
            <mxPoint x="55" y="2250" as="sourcePoint" />
            <Array as="points">
              <mxPoint x="85" y="2250" />
            </Array>
          </mxGeometry>
        </mxCell>
        <mxCell id="wPj87sgsE2ywRhPkub4z-121" value="" style="html=1;points=[];perimeter=orthogonalPerimeter;" parent="wPj87sgsE2ywRhPkub4z-51" vertex="1">
          <mxGeometry x="45" y="2870" width="10" height="80" as="geometry" />
        </mxCell>
        <mxCell id="wPj87sgsE2ywRhPkub4z-126" value="" style="html=1;points=[];perimeter=orthogonalPerimeter;" parent="wPj87sgsE2ywRhPkub4z-51" vertex="1">
          <mxGeometry x="50" y="2900" width="10" height="40" as="geometry" />
        </mxCell>
        <mxCell id="wPj87sgsE2ywRhPkub4z-127" value="ipp_chnl渠道表,ipp_bkfc银行交易渠道关系&lt;br&gt;表(50000多条)联合查询" style="edgeStyle=orthogonalEdgeStyle;html=1;align=left;spacingLeft=2;endArrow=block;rounded=0;entryX=1;entryY=0;" parent="wPj87sgsE2ywRhPkub4z-51" target="wPj87sgsE2ywRhPkub4z-126" edge="1">
          <mxGeometry relative="1" as="geometry">
            <mxPoint x="55" y="2880" as="sourcePoint" />
            <Array as="points">
              <mxPoint x="85" y="2880" />
            </Array>
          </mxGeometry>
        </mxCell>
        <mxCell id="wPj87sgsE2ywRhPkub4z-53" value="selUsablePayChannel查询签约交易 签约银行支持的渠道列表" style="html=1;verticalAlign=bottom;endArrow=block;entryX=0;entryY=0;rounded=0;" parent="1" source="wPj87sgsE2ywRhPkub4z-45" target="wPj87sgsE2ywRhPkub4z-52" edge="1">
          <mxGeometry relative="1" as="geometry">
            <mxPoint x="675" y="1450" as="sourcePoint" />
          </mxGeometry>
        </mxCell>
        <mxCell id="wPj87sgsE2ywRhPkub4z-54" value="return List&amp;lt;IppsComplex.C_SMRTLS&amp;gt;" style="html=1;verticalAlign=bottom;endArrow=open;dashed=1;endSize=8;exitX=0;exitY=0.95;rounded=0;" parent="1" source="wPj87sgsE2ywRhPkub4z-52" target="wPj87sgsE2ywRhPkub4z-45" edge="1">
          <mxGeometry relative="1" as="geometry">
            <mxPoint x="675" y="1526" as="targetPoint" />
          </mxGeometry>
        </mxCell>
        <mxCell id="wPj87sgsE2ywRhPkub4z-101" value="selUsablePayChannel查询签约交易 签约银行支持的渠道列表" style="html=1;verticalAlign=bottom;endArrow=block;entryX=0;entryY=0;rounded=0;" parent="1" source="wPj87sgsE2ywRhPkub4z-98" target="wPj87sgsE2ywRhPkub4z-100" edge="1">
          <mxGeometry relative="1" as="geometry">
            <mxPoint x="675" y="2250" as="sourcePoint" />
          </mxGeometry>
        </mxCell>
        <mxCell id="wPj87sgsE2ywRhPkub4z-102" value="return List&amp;lt;IppsComplex.C_SMRTLS&amp;gt;" style="html=1;verticalAlign=bottom;endArrow=open;dashed=1;endSize=8;exitX=0;exitY=0.95;rounded=0;" parent="1" source="wPj87sgsE2ywRhPkub4z-100" target="wPj87sgsE2ywRhPkub4z-98" edge="1">
          <mxGeometry relative="1" as="geometry">
            <mxPoint x="675" y="2326" as="targetPoint" />
          </mxGeometry>
        </mxCell>
        <mxCell id="wPj87sgsE2ywRhPkub4z-122" value="selUsablePayChannel查询签约交易 签约银行支持的渠道列表" style="html=1;verticalAlign=bottom;endArrow=block;entryX=0;entryY=0;rounded=0;" parent="1" source="wPj87sgsE2ywRhPkub4z-115" target="wPj87sgsE2ywRhPkub4z-121" edge="1">
          <mxGeometry relative="1" as="geometry">
            <mxPoint x="675" y="2890" as="sourcePoint" />
          </mxGeometry>
        </mxCell>
        <mxCell id="wPj87sgsE2ywRhPkub4z-123" value="return List&amp;lt;IppsComplex.C_SMRTLS&amp;gt;" style="html=1;verticalAlign=bottom;endArrow=open;dashed=1;endSize=8;exitX=0;exitY=0.95;rounded=0;" parent="1" source="wPj87sgsE2ywRhPkub4z-121" target="wPj87sgsE2ywRhPkub4z-115" edge="1">
          <mxGeometry relative="1" as="geometry">
            <mxPoint x="675" y="2966" as="targetPoint" />
          </mxGeometry>
        </mxCell>
        <mxCell id="k6P6NAYP-tHjK9mDBuax-1" value="&lt;div&gt;&lt;br&gt;&lt;/div&gt;&lt;div&gt;property:function主动设置为&#39;s0070916&#39;&lt;/div&gt;&lt;div&gt;property.siAddSign boolean 是否增加签约 1是，0否&lt;/div&gt;&lt;div&gt;property.setIs_sgn:0&amp;nbsp; 0表示已签约，1未签约(不是正常的正向逻辑)&lt;/div&gt;&lt;div&gt;property.setIsRouter:0,0表示无需路由，1表示需要路由&lt;br&gt;0.1根据签约交易码查询所有通道(ipp_bkfc)&lt;br&gt;0.2查询所有可用状态的支持通道(ipp_chnl)&lt;br&gt;1.根据四要素查询已签约表ipp_sign_msg是否存在签约记录&lt;/div&gt;&lt;div&gt;1.1存在签约记录&lt;/div&gt;&lt;div&gt;1.1.1查询已签约记录最新一条签约记录签约时间是否大于后台配置的签约成功天数(当前配置2天),返回是否尝试签约新渠道标志&lt;/div&gt;&lt;div&gt;---&amp;gt;这条我理解是为了触发用户多多签约其他渠道&lt;/div&gt;&lt;div&gt;1.1.1.1尝试签约新渠道标志为true&lt;/div&gt;&lt;div&gt;1.1.1.1.1如果signChnlList为空,则无需路由,已签约,方法结束&lt;/div&gt;&lt;div&gt;1.1.1.1.2查询签约交易签约银行支持的渠道列表信息(ipp_bkfc,ipp_chnl)&lt;/div&gt;&lt;div&gt;1.1.1.1.2.1如果签约银行支持的渠道列表为空&lt;/div&gt;&lt;div&gt;1.1.1.1.2.1.1判断已签约并且可用渠道列表为空,直接抛出异常(&#39;007.Pay.E0052&#39;,&#39;签约暂无通道可支持&#39;)&lt;/div&gt;&lt;div&gt;1.1.1.1.2.1.2无需路由,已签约,方法结束&lt;/div&gt;&lt;div&gt;1.1.1.1.2.2如果签约银行支持的渠道列表不为空&lt;/div&gt;&lt;div&gt;1.1.1.1.2.2.1如果已签约并且可用渠道列表不为空,property是否增加签约标志设置为是&lt;/div&gt;&lt;div&gt;1.1.1.1.2.2.2需要路由,方法结束&lt;/div&gt;&lt;div&gt;&lt;br&gt;&lt;/div&gt;&lt;div&gt;1.1.1.2尝试签约新渠道标志为false&lt;/div&gt;&lt;div&gt;1.1.1.2.1已签约并且渠道可用的签约记录列表不为空,无需路由,已签约,方法结束。&lt;/div&gt;&lt;div&gt;1.1.1.2.2已签约并且渠道可用的签约记录列表为空&lt;/div&gt;&lt;div&gt;1.1.1.2.2.1如果可用通道为空,则抛出异常(&#39;007.Pay.E0052&#39;,&#39;签约暂无通道可支持&#39;)&lt;/div&gt;&lt;div&gt;1.1.1.2.2.2查询签约交易签约银行支持的渠道列表信息(ipp_bkfc,ipp_chnl)&lt;/div&gt;&lt;div&gt;1.1.1.2.2.2.1如果签约银行支持的渠道列表为空,则抛出异常(&#39;007.Pay.E0052&#39;,&#39;签约暂无通道可支持&#39;)&lt;/div&gt;&lt;div&gt;1.1.1.2.2.2.2需要路由,方法结束&lt;/div&gt;&lt;div&gt;&lt;br&gt;&lt;/div&gt;&lt;div&gt;1.2不存在签约记录&lt;/div&gt;&lt;div&gt;1.2.1如果可用状态渠道数量为1,则无需路由,方法结束&lt;/div&gt;&lt;div&gt;1.2.2查询签约交易签约银行支持的渠道列表信息(ipp_bkfc,ipp_chnl)&lt;/div&gt;&lt;div&gt;1.2.2.1如果签约银行支持的渠道列表为空,则无需路由,方法结束todo这儿为什么不抛出异常签约暂无通道可支持&lt;/div&gt;&lt;div&gt;1.2.2.2需要路由,方法结束&lt;/div&gt;&lt;div&gt;&lt;br&gt;&lt;/div&gt;&lt;div&gt;问题:渠道存在已签约记录,但是当前渠道配置不支持该银行,那到底算不算已签约了呢? 算已签约&lt;/div&gt;" style="text;html=1;strokeColor=none;fillColor=none;align=center;verticalAlign=middle;whiteSpace=wrap;rounded=0;" parent="1" vertex="1">
          <mxGeometry x="680" y="320" width="940" height="30" as="geometry" />
        </mxCell>
      </root>
    </mxGraphModel>
  </diagram>
  <diagram id="KH0A_dz1H5tX0CjP3-BL" name="第 2 页">
    <mxGraphModel dx="954" dy="616" grid="1" gridSize="10" guides="1" tooltips="1" connect="1" arrows="1" fold="1" page="1" pageScale="1" pageWidth="827" pageHeight="1169" math="0" shadow="0">
      <root>
        <mxCell id="0" />
        <mxCell id="1" parent="0" />
        <mxCell id="bqDUDfRwrQbukF6TccsK-1" value="S0070916" style="shape=umlLifeline;perimeter=lifelinePerimeter;whiteSpace=wrap;html=1;container=1;dropTarget=0;collapsible=0;recursiveResize=0;outlineConnect=0;portConstraint=eastwest;newEdgeStyle={&quot;edgeStyle&quot;:&quot;elbowEdgeStyle&quot;,&quot;elbow&quot;:&quot;vertical&quot;,&quot;curved&quot;:0,&quot;rounded&quot;:0};" vertex="1" parent="1">
          <mxGeometry x="40" y="30" width="100" height="910" as="geometry" />
        </mxCell>
        <mxCell id="bqDUDfRwrQbukF6TccsK-4" value="" style="html=1;points=[];perimeter=orthogonalPerimeter;outlineConnect=0;targetShapes=umlLifeline;portConstraint=eastwest;newEdgeStyle={&quot;edgeStyle&quot;:&quot;elbowEdgeStyle&quot;,&quot;elbow&quot;:&quot;vertical&quot;,&quot;curved&quot;:0,&quot;rounded&quot;:0};" vertex="1" parent="bqDUDfRwrQbukF6TccsK-1">
          <mxGeometry x="45" y="80" width="10" height="830" as="geometry" />
        </mxCell>
        <mxCell id="bqDUDfRwrQbukF6TccsK-7" value="" style="html=1;points=[];perimeter=orthogonalPerimeter;outlineConnect=0;targetShapes=umlLifeline;portConstraint=eastwest;newEdgeStyle={&quot;edgeStyle&quot;:&quot;elbowEdgeStyle&quot;,&quot;elbow&quot;:&quot;vertical&quot;,&quot;curved&quot;:0,&quot;rounded&quot;:0};" vertex="1" parent="bqDUDfRwrQbukF6TccsK-1">
          <mxGeometry x="50" y="120" width="10" height="40" as="geometry" />
        </mxCell>
        <mxCell id="bqDUDfRwrQbukF6TccsK-8" value="startProcess()充值签约开始处理" style="html=1;align=left;spacingLeft=2;endArrow=block;rounded=0;edgeStyle=orthogonalEdgeStyle;curved=0;rounded=0;" edge="1" target="bqDUDfRwrQbukF6TccsK-7" parent="bqDUDfRwrQbukF6TccsK-1">
          <mxGeometry relative="1" as="geometry">
            <mxPoint x="55" y="100" as="sourcePoint" />
            <Array as="points">
              <mxPoint x="85" y="130" />
            </Array>
          </mxGeometry>
        </mxCell>
        <mxCell id="bqDUDfRwrQbukF6TccsK-9" value="" style="html=1;points=[];perimeter=orthogonalPerimeter;outlineConnect=0;targetShapes=umlLifeline;portConstraint=eastwest;newEdgeStyle={&quot;edgeStyle&quot;:&quot;elbowEdgeStyle&quot;,&quot;elbow&quot;:&quot;vertical&quot;,&quot;curved&quot;:0,&quot;rounded&quot;:0};" vertex="1" parent="bqDUDfRwrQbukF6TccsK-1">
          <mxGeometry x="50" y="200" width="10" height="40" as="geometry" />
        </mxCell>
        <mxCell id="bqDUDfRwrQbukF6TccsK-10" value="signCheck()判断是否需要签约" style="html=1;align=left;spacingLeft=2;endArrow=block;rounded=0;edgeStyle=orthogonalEdgeStyle;curved=0;rounded=0;" edge="1" target="bqDUDfRwrQbukF6TccsK-9" parent="bqDUDfRwrQbukF6TccsK-1">
          <mxGeometry relative="1" as="geometry">
            <mxPoint x="55" y="180" as="sourcePoint" />
            <Array as="points">
              <mxPoint x="85" y="210" />
            </Array>
          </mxGeometry>
        </mxCell>
        <mxCell id="bqDUDfRwrQbukF6TccsK-13" value="" style="html=1;points=[];perimeter=orthogonalPerimeter;outlineConnect=0;targetShapes=umlLifeline;portConstraint=eastwest;newEdgeStyle={&quot;edgeStyle&quot;:&quot;elbowEdgeStyle&quot;,&quot;elbow&quot;:&quot;vertical&quot;,&quot;curved&quot;:0,&quot;rounded&quot;:0};" vertex="1" parent="bqDUDfRwrQbukF6TccsK-1">
          <mxGeometry x="50" y="280" width="10" height="610" as="geometry" />
        </mxCell>
        <mxCell id="bqDUDfRwrQbukF6TccsK-14" value="property.isRouter为true 需要路由" style="html=1;align=left;spacingLeft=2;endArrow=block;rounded=0;edgeStyle=orthogonalEdgeStyle;curved=0;rounded=0;" edge="1" target="bqDUDfRwrQbukF6TccsK-13" parent="bqDUDfRwrQbukF6TccsK-1">
          <mxGeometry relative="1" as="geometry">
            <mxPoint x="55" y="260" as="sourcePoint" />
            <Array as="points">
              <mxPoint x="85" y="290" />
            </Array>
          </mxGeometry>
        </mxCell>
        <mxCell id="bqDUDfRwrQbukF6TccsK-15" value="IntelRouter" style="shape=umlLifeline;perimeter=lifelinePerimeter;whiteSpace=wrap;html=1;container=1;dropTarget=0;collapsible=0;recursiveResize=0;outlineConnect=0;portConstraint=eastwest;newEdgeStyle={&quot;edgeStyle&quot;:&quot;elbowEdgeStyle&quot;,&quot;elbow&quot;:&quot;vertical&quot;,&quot;curved&quot;:0,&quot;rounded&quot;:0};" vertex="1" parent="1">
          <mxGeometry x="314" y="30" width="100" height="1930" as="geometry" />
        </mxCell>
        <mxCell id="bqDUDfRwrQbukF6TccsK-16" value="" style="html=1;points=[];perimeter=orthogonalPerimeter;outlineConnect=0;targetShapes=umlLifeline;portConstraint=eastwest;newEdgeStyle={&quot;edgeStyle&quot;:&quot;elbowEdgeStyle&quot;,&quot;elbow&quot;:&quot;vertical&quot;,&quot;curved&quot;:0,&quot;rounded&quot;:0};" vertex="1" parent="bqDUDfRwrQbukF6TccsK-15">
          <mxGeometry x="45" y="320" width="10" height="1610" as="geometry" />
        </mxCell>
        <mxCell id="bqDUDfRwrQbukF6TccsK-19" value="" style="html=1;points=[];perimeter=orthogonalPerimeter;outlineConnect=0;targetShapes=umlLifeline;portConstraint=eastwest;newEdgeStyle={&quot;edgeStyle&quot;:&quot;elbowEdgeStyle&quot;,&quot;elbow&quot;:&quot;vertical&quot;,&quot;curved&quot;:0,&quot;rounded&quot;:0};" vertex="1" parent="bqDUDfRwrQbukF6TccsK-15">
          <mxGeometry x="50" y="370" width="10" height="1380" as="geometry" />
        </mxCell>
        <mxCell id="bqDUDfRwrQbukF6TccsK-20" value="判断input模型中支付渠道pychnl为空" style="html=1;align=left;spacingLeft=2;endArrow=block;rounded=0;edgeStyle=orthogonalEdgeStyle;curved=0;rounded=0;" edge="1" target="bqDUDfRwrQbukF6TccsK-19" parent="bqDUDfRwrQbukF6TccsK-15">
          <mxGeometry relative="1" as="geometry">
            <mxPoint x="55" y="350" as="sourcePoint" />
            <Array as="points">
              <mxPoint x="85" y="380" />
            </Array>
          </mxGeometry>
        </mxCell>
        <mxCell id="bqDUDfRwrQbukF6TccsK-17" value="getChnlByRouter" style="html=1;verticalAlign=bottom;endArrow=block;edgeStyle=elbowEdgeStyle;elbow=horizontal;curved=0;rounded=0;" edge="1" target="bqDUDfRwrQbukF6TccsK-16" parent="1" source="bqDUDfRwrQbukF6TccsK-13">
          <mxGeometry relative="1" as="geometry">
            <mxPoint x="289" y="350" as="sourcePoint" />
            <Array as="points">
              <mxPoint x="230" y="360" />
            </Array>
          </mxGeometry>
        </mxCell>
        <mxCell id="bqDUDfRwrQbukF6TccsK-18" value="return" style="html=1;verticalAlign=bottom;endArrow=open;dashed=1;endSize=8;edgeStyle=elbowEdgeStyle;elbow=vertical;curved=0;rounded=0;" edge="1" source="bqDUDfRwrQbukF6TccsK-16" parent="1" target="bqDUDfRwrQbukF6TccsK-13">
          <mxGeometry relative="1" as="geometry">
            <mxPoint x="289" y="425" as="targetPoint" />
            <Array as="points">
              <mxPoint x="230" y="700" />
            </Array>
          </mxGeometry>
        </mxCell>
        <mxCell id="bqDUDfRwrQbukF6TccsK-21" value="RouterBus" style="shape=umlLifeline;perimeter=lifelinePerimeter;whiteSpace=wrap;html=1;container=1;dropTarget=0;collapsible=0;recursiveResize=0;outlineConnect=0;portConstraint=eastwest;newEdgeStyle={&quot;edgeStyle&quot;:&quot;elbowEdgeStyle&quot;,&quot;elbow&quot;:&quot;vertical&quot;,&quot;curved&quot;:0,&quot;rounded&quot;:0};" vertex="1" parent="1">
          <mxGeometry x="540" y="30" width="100" height="2410" as="geometry" />
        </mxCell>
        <mxCell id="bqDUDfRwrQbukF6TccsK-22" value="" style="html=1;points=[];perimeter=orthogonalPerimeter;outlineConnect=0;targetShapes=umlLifeline;portConstraint=eastwest;newEdgeStyle={&quot;edgeStyle&quot;:&quot;elbowEdgeStyle&quot;,&quot;elbow&quot;:&quot;vertical&quot;,&quot;curved&quot;:0,&quot;rounded&quot;:0};" vertex="1" parent="bqDUDfRwrQbukF6TccsK-21">
          <mxGeometry x="45" y="390" width="10" height="170" as="geometry" />
        </mxCell>
        <mxCell id="bqDUDfRwrQbukF6TccsK-25" value="" style="html=1;points=[];perimeter=orthogonalPerimeter;outlineConnect=0;targetShapes=umlLifeline;portConstraint=eastwest;newEdgeStyle={&quot;edgeStyle&quot;:&quot;elbowEdgeStyle&quot;,&quot;elbow&quot;:&quot;vertical&quot;,&quot;curved&quot;:0,&quot;rounded&quot;:0};" vertex="1" parent="bqDUDfRwrQbukF6TccsK-21">
          <mxGeometry x="50" y="430" width="10" height="40" as="geometry" />
        </mxCell>
        <mxCell id="bqDUDfRwrQbukF6TccsK-26" value="根据功能码查询对应的Tab_ipp_func模型" style="html=1;align=left;spacingLeft=2;endArrow=block;rounded=0;edgeStyle=orthogonalEdgeStyle;curved=0;rounded=0;" edge="1" target="bqDUDfRwrQbukF6TccsK-25" parent="bqDUDfRwrQbukF6TccsK-21">
          <mxGeometry relative="1" as="geometry">
            <mxPoint x="55" y="410" as="sourcePoint" />
            <Array as="points">
              <mxPoint x="85" y="440" />
            </Array>
          </mxGeometry>
        </mxCell>
        <mxCell id="bqDUDfRwrQbukF6TccsK-27" value="" style="html=1;points=[];perimeter=orthogonalPerimeter;outlineConnect=0;targetShapes=umlLifeline;portConstraint=eastwest;newEdgeStyle={&quot;edgeStyle&quot;:&quot;elbowEdgeStyle&quot;,&quot;elbow&quot;:&quot;vertical&quot;,&quot;curved&quot;:0,&quot;rounded&quot;:0};" vertex="1" parent="bqDUDfRwrQbukF6TccsK-21">
          <mxGeometry x="50" y="500" width="10" height="40" as="geometry" />
        </mxCell>
        <mxCell id="bqDUDfRwrQbukF6TccsK-28" value="设置对应的routerNo和ruleNo和默认支持渠道&lt;br&gt;data.setRouterNo(ipp_func.getRouter())&lt;br&gt;data.setRuleNo(ipp_func.getRuleNo())&lt;br&gt;&lt;br&gt;生产环境0916对应的routerNo是router01,ruleNo是rule01&lt;br&gt;0910充值是routerNo是routerDeposit,ruleNo是ruleDeposit" style="html=1;align=left;spacingLeft=2;endArrow=block;rounded=0;edgeStyle=orthogonalEdgeStyle;curved=0;rounded=0;" edge="1" target="bqDUDfRwrQbukF6TccsK-27" parent="bqDUDfRwrQbukF6TccsK-21">
          <mxGeometry relative="1" as="geometry">
            <mxPoint x="55" y="480" as="sourcePoint" />
            <Array as="points">
              <mxPoint x="85" y="510" />
            </Array>
          </mxGeometry>
        </mxCell>
        <mxCell id="bqDUDfRwrQbukF6TccsK-29" value="" style="html=1;points=[];perimeter=orthogonalPerimeter;outlineConnect=0;targetShapes=umlLifeline;portConstraint=eastwest;newEdgeStyle={&quot;edgeStyle&quot;:&quot;elbowEdgeStyle&quot;,&quot;elbow&quot;:&quot;vertical&quot;,&quot;curved&quot;:0,&quot;rounded&quot;:0};" vertex="1" parent="bqDUDfRwrQbukF6TccsK-21">
          <mxGeometry x="45" y="600" width="10" height="1810" as="geometry" />
        </mxCell>
        <mxCell id="bqDUDfRwrQbukF6TccsK-38" value="" style="html=1;points=[];perimeter=orthogonalPerimeter;outlineConnect=0;targetShapes=umlLifeline;portConstraint=eastwest;newEdgeStyle={&quot;edgeStyle&quot;:&quot;elbowEdgeStyle&quot;,&quot;elbow&quot;:&quot;vertical&quot;,&quot;curved&quot;:0,&quot;rounded&quot;:0};" vertex="1" parent="bqDUDfRwrQbukF6TccsK-21">
          <mxGeometry x="50" y="730" width="10" height="40" as="geometry" />
        </mxCell>
        <mxCell id="bqDUDfRwrQbukF6TccsK-39" value="如果路由器IRouter不可用则抛出路由器不存在异常" style="html=1;align=left;spacingLeft=2;endArrow=block;rounded=0;edgeStyle=orthogonalEdgeStyle;curved=0;rounded=0;" edge="1" target="bqDUDfRwrQbukF6TccsK-38" parent="bqDUDfRwrQbukF6TccsK-21">
          <mxGeometry relative="1" as="geometry">
            <mxPoint x="55" y="710" as="sourcePoint" />
            <Array as="points">
              <mxPoint x="85" y="740" />
            </Array>
          </mxGeometry>
        </mxCell>
        <mxCell id="bqDUDfRwrQbukF6TccsK-69" value="" style="html=1;points=[];perimeter=orthogonalPerimeter;outlineConnect=0;targetShapes=umlLifeline;portConstraint=eastwest;newEdgeStyle={&quot;edgeStyle&quot;:&quot;elbowEdgeStyle&quot;,&quot;elbow&quot;:&quot;vertical&quot;,&quot;curved&quot;:0,&quot;rounded&quot;:0};" vertex="1" parent="bqDUDfRwrQbukF6TccsK-21">
          <mxGeometry x="50" y="1690" width="10" height="40" as="geometry" />
        </mxCell>
        <mxCell id="bqDUDfRwrQbukF6TccsK-70" value="如果渠道列表为空，则抛出无可用渠道异常" style="html=1;align=left;spacingLeft=2;endArrow=block;rounded=0;edgeStyle=orthogonalEdgeStyle;curved=0;rounded=0;" edge="1" target="bqDUDfRwrQbukF6TccsK-69" parent="bqDUDfRwrQbukF6TccsK-21">
          <mxGeometry relative="1" as="geometry">
            <mxPoint x="55" y="1670" as="sourcePoint" />
            <Array as="points">
              <mxPoint x="85" y="1700" />
            </Array>
          </mxGeometry>
        </mxCell>
        <mxCell id="bqDUDfRwrQbukF6TccsK-81" value="" style="html=1;points=[];perimeter=orthogonalPerimeter;outlineConnect=0;targetShapes=umlLifeline;portConstraint=eastwest;newEdgeStyle={&quot;edgeStyle&quot;:&quot;elbowEdgeStyle&quot;,&quot;elbow&quot;:&quot;vertical&quot;,&quot;curved&quot;:0,&quot;rounded&quot;:0};" vertex="1" parent="bqDUDfRwrQbukF6TccsK-21">
          <mxGeometry x="50" y="2090" width="10" height="170" as="geometry" />
        </mxCell>
        <mxCell id="bqDUDfRwrQbukF6TccsK-82" value="路由器做前置过滤器处理doBeforeFiltering(&amp;nbsp;List&amp;lt;IppsComplex.C_SMRTLS&amp;gt;&lt;br&gt;,RouterInboudData)" style="html=1;align=left;spacingLeft=2;endArrow=block;rounded=0;edgeStyle=orthogonalEdgeStyle;curved=0;rounded=0;" edge="1" target="bqDUDfRwrQbukF6TccsK-81" parent="bqDUDfRwrQbukF6TccsK-21">
          <mxGeometry relative="1" as="geometry">
            <mxPoint x="55" y="2070" as="sourcePoint" />
            <Array as="points">
              <mxPoint x="85" y="2100" />
            </Array>
          </mxGeometry>
        </mxCell>
        <mxCell id="bqDUDfRwrQbukF6TccsK-83" value="" style="html=1;points=[];perimeter=orthogonalPerimeter;outlineConnect=0;targetShapes=umlLifeline;portConstraint=eastwest;newEdgeStyle={&quot;edgeStyle&quot;:&quot;elbowEdgeStyle&quot;,&quot;elbow&quot;:&quot;vertical&quot;,&quot;curved&quot;:0,&quot;rounded&quot;:0};" vertex="1" parent="bqDUDfRwrQbukF6TccsK-21">
          <mxGeometry x="55" y="2140" width="10" height="100" as="geometry" />
        </mxCell>
        <mxCell id="bqDUDfRwrQbukF6TccsK-84" value="doFilter(List&amp;lt;IppsComplex.C_SMRTLS&amp;gt;&lt;br style=&quot;border-color: var(--border-color);&quot;&gt;,RouterInboudData)" style="html=1;align=left;spacingLeft=2;endArrow=block;rounded=0;edgeStyle=orthogonalEdgeStyle;curved=0;rounded=0;" edge="1" target="bqDUDfRwrQbukF6TccsK-83" parent="bqDUDfRwrQbukF6TccsK-21">
          <mxGeometry relative="1" as="geometry">
            <mxPoint x="60" y="2120" as="sourcePoint" />
            <Array as="points">
              <mxPoint x="90" y="2150" />
            </Array>
          </mxGeometry>
        </mxCell>
        <mxCell id="bqDUDfRwrQbukF6TccsK-85" value="" style="html=1;points=[];perimeter=orthogonalPerimeter;outlineConnect=0;targetShapes=umlLifeline;portConstraint=eastwest;newEdgeStyle={&quot;edgeStyle&quot;:&quot;elbowEdgeStyle&quot;,&quot;elbow&quot;:&quot;vertical&quot;,&quot;curved&quot;:0,&quot;rounded&quot;:0};" vertex="1" parent="bqDUDfRwrQbukF6TccsK-21">
          <mxGeometry x="60" y="2180" width="10" height="40" as="geometry" />
        </mxCell>
        <mxCell id="bqDUDfRwrQbukF6TccsK-86" value="self call" style="html=1;align=left;spacingLeft=2;endArrow=block;rounded=0;edgeStyle=orthogonalEdgeStyle;curved=0;rounded=0;" edge="1" target="bqDUDfRwrQbukF6TccsK-85" parent="bqDUDfRwrQbukF6TccsK-21">
          <mxGeometry relative="1" as="geometry">
            <mxPoint x="65" y="2160" as="sourcePoint" />
            <Array as="points">
              <mxPoint x="95" y="2190" />
            </Array>
          </mxGeometry>
        </mxCell>
        <mxCell id="bqDUDfRwrQbukF6TccsK-23" value="getRouterInboudData(funcno)" style="html=1;verticalAlign=bottom;endArrow=block;edgeStyle=elbowEdgeStyle;elbow=vertical;curved=0;rounded=0;" edge="1" target="bqDUDfRwrQbukF6TccsK-22" parent="1" source="bqDUDfRwrQbukF6TccsK-19">
          <mxGeometry relative="1" as="geometry">
            <mxPoint x="475" y="420" as="sourcePoint" />
            <Array as="points">
              <mxPoint x="430" y="430" />
            </Array>
          </mxGeometry>
        </mxCell>
        <mxCell id="bqDUDfRwrQbukF6TccsK-24" value="return RouterInboudData" style="html=1;verticalAlign=bottom;endArrow=open;dashed=1;endSize=8;edgeStyle=elbowEdgeStyle;elbow=horizontal;curved=0;rounded=0;" edge="1" source="bqDUDfRwrQbukF6TccsK-22" parent="1" target="bqDUDfRwrQbukF6TccsK-19">
          <mxGeometry relative="1" as="geometry">
            <mxPoint x="475" y="495" as="targetPoint" />
            <Array as="points">
              <mxPoint x="440" y="580" />
              <mxPoint x="470" y="820" />
              <mxPoint x="450" y="490" />
            </Array>
          </mxGeometry>
        </mxCell>
        <mxCell id="bqDUDfRwrQbukF6TccsK-30" value="getBestChannel(RouterInboudData)" style="html=1;verticalAlign=bottom;endArrow=block;edgeStyle=elbowEdgeStyle;elbow=vertical;curved=0;rounded=0;" edge="1" target="bqDUDfRwrQbukF6TccsK-29" parent="1" source="bqDUDfRwrQbukF6TccsK-19">
          <mxGeometry relative="1" as="geometry">
            <mxPoint x="475" y="630" as="sourcePoint" />
            <Array as="points">
              <mxPoint x="430" y="640" />
            </Array>
          </mxGeometry>
        </mxCell>
        <mxCell id="bqDUDfRwrQbukF6TccsK-31" value="return IppsComplex.C_SMRTLS" style="html=1;verticalAlign=bottom;endArrow=open;dashed=1;endSize=8;edgeStyle=elbowEdgeStyle;elbow=vertical;curved=0;rounded=0;" edge="1" source="bqDUDfRwrQbukF6TccsK-29" parent="1" target="bqDUDfRwrQbukF6TccsK-19">
          <mxGeometry relative="1" as="geometry">
            <mxPoint x="475" y="705" as="targetPoint" />
            <Array as="points">
              <mxPoint x="450" y="1060" />
            </Array>
          </mxGeometry>
        </mxCell>
        <mxCell id="bqDUDfRwrQbukF6TccsK-32" value="RouterFactory" style="shape=umlLifeline;perimeter=lifelinePerimeter;whiteSpace=wrap;html=1;container=1;dropTarget=0;collapsible=0;recursiveResize=0;outlineConnect=0;portConstraint=eastwest;newEdgeStyle={&quot;edgeStyle&quot;:&quot;elbowEdgeStyle&quot;,&quot;elbow&quot;:&quot;vertical&quot;,&quot;curved&quot;:0,&quot;rounded&quot;:0};" vertex="1" parent="1">
          <mxGeometry x="820" y="30" width="100" height="1110" as="geometry" />
        </mxCell>
        <mxCell id="bqDUDfRwrQbukF6TccsK-33" value="" style="html=1;points=[];perimeter=orthogonalPerimeter;outlineConnect=0;targetShapes=umlLifeline;portConstraint=eastwest;newEdgeStyle={&quot;edgeStyle&quot;:&quot;elbowEdgeStyle&quot;,&quot;elbow&quot;:&quot;vertical&quot;,&quot;curved&quot;:0,&quot;rounded&quot;:0};" vertex="1" parent="bqDUDfRwrQbukF6TccsK-32">
          <mxGeometry x="45" y="620" width="10" height="80" as="geometry" />
        </mxCell>
        <mxCell id="bqDUDfRwrQbukF6TccsK-36" value="" style="html=1;points=[];perimeter=orthogonalPerimeter;outlineConnect=0;targetShapes=umlLifeline;portConstraint=eastwest;newEdgeStyle={&quot;edgeStyle&quot;:&quot;elbowEdgeStyle&quot;,&quot;elbow&quot;:&quot;vertical&quot;,&quot;curved&quot;:0,&quot;rounded&quot;:0};" vertex="1" parent="bqDUDfRwrQbukF6TccsK-32">
          <mxGeometry x="50" y="650" width="10" height="40" as="geometry" />
        </mxCell>
        <mxCell id="bqDUDfRwrQbukF6TccsK-37" value="查询ipp_router表获取对应的开启状态的路由器" style="html=1;align=left;spacingLeft=2;endArrow=block;rounded=0;edgeStyle=orthogonalEdgeStyle;curved=0;rounded=0;" edge="1" target="bqDUDfRwrQbukF6TccsK-36" parent="bqDUDfRwrQbukF6TccsK-32">
          <mxGeometry relative="1" as="geometry">
            <mxPoint x="55" y="630" as="sourcePoint" />
            <Array as="points">
              <mxPoint x="85" y="660" />
            </Array>
          </mxGeometry>
        </mxCell>
        <mxCell id="bqDUDfRwrQbukF6TccsK-34" value="getRouter(routerNo)&lt;br&gt;根据路由器编号获取路由器" style="html=1;verticalAlign=bottom;endArrow=block;edgeStyle=elbowEdgeStyle;elbow=vertical;curved=0;rounded=0;" edge="1" target="bqDUDfRwrQbukF6TccsK-33" parent="1" source="bqDUDfRwrQbukF6TccsK-29">
          <mxGeometry relative="1" as="geometry">
            <mxPoint x="675" y="650" as="sourcePoint" />
            <Array as="points">
              <mxPoint x="630" y="660" />
            </Array>
          </mxGeometry>
        </mxCell>
        <mxCell id="bqDUDfRwrQbukF6TccsK-35" value="return IRouter(实际返回RouterModel子类)" style="html=1;verticalAlign=bottom;endArrow=open;dashed=1;endSize=8;edgeStyle=elbowEdgeStyle;elbow=vertical;curved=0;rounded=0;" edge="1" source="bqDUDfRwrQbukF6TccsK-33" parent="1" target="bqDUDfRwrQbukF6TccsK-29">
          <mxGeometry relative="1" as="geometry">
            <mxPoint x="675" y="725" as="targetPoint" />
            <Array as="points">
              <mxPoint x="640" y="720" />
            </Array>
          </mxGeometry>
        </mxCell>
        <mxCell id="bqDUDfRwrQbukF6TccsK-40" value="RouterRuleFactory" style="shape=umlLifeline;perimeter=lifelinePerimeter;whiteSpace=wrap;html=1;container=1;dropTarget=0;collapsible=0;recursiveResize=0;outlineConnect=0;portConstraint=eastwest;newEdgeStyle={&quot;edgeStyle&quot;:&quot;elbowEdgeStyle&quot;,&quot;elbow&quot;:&quot;vertical&quot;,&quot;curved&quot;:0,&quot;rounded&quot;:0};" vertex="1" parent="1">
          <mxGeometry x="1000" y="30" width="100" height="1100" as="geometry" />
        </mxCell>
        <mxCell id="bqDUDfRwrQbukF6TccsK-41" value="" style="html=1;points=[];perimeter=orthogonalPerimeter;outlineConnect=0;targetShapes=umlLifeline;portConstraint=eastwest;newEdgeStyle={&quot;edgeStyle&quot;:&quot;elbowEdgeStyle&quot;,&quot;elbow&quot;:&quot;vertical&quot;,&quot;curved&quot;:0,&quot;rounded&quot;:0};" vertex="1" parent="bqDUDfRwrQbukF6TccsK-40">
          <mxGeometry x="45" y="810" width="10" height="140" as="geometry" />
        </mxCell>
        <mxCell id="bqDUDfRwrQbukF6TccsK-44" value="" style="html=1;points=[];perimeter=orthogonalPerimeter;outlineConnect=0;targetShapes=umlLifeline;portConstraint=eastwest;newEdgeStyle={&quot;edgeStyle&quot;:&quot;elbowEdgeStyle&quot;,&quot;elbow&quot;:&quot;vertical&quot;,&quot;curved&quot;:0,&quot;rounded&quot;:0};" vertex="1" parent="bqDUDfRwrQbukF6TccsK-40">
          <mxGeometry x="50" y="840" width="10" height="40" as="geometry" />
        </mxCell>
        <mxCell id="bqDUDfRwrQbukF6TccsK-45" value="查询ipp_rules表获取对应的开启状态的路由器规则" style="html=1;align=left;spacingLeft=2;endArrow=block;rounded=0;edgeStyle=orthogonalEdgeStyle;curved=0;rounded=0;" edge="1" target="bqDUDfRwrQbukF6TccsK-44" parent="bqDUDfRwrQbukF6TccsK-40">
          <mxGeometry relative="1" as="geometry">
            <mxPoint x="55" y="820" as="sourcePoint" />
            <Array as="points">
              <mxPoint x="85" y="850" />
            </Array>
          </mxGeometry>
        </mxCell>
        <mxCell id="bqDUDfRwrQbukF6TccsK-46" value="" style="html=1;points=[];perimeter=orthogonalPerimeter;outlineConnect=0;targetShapes=umlLifeline;portConstraint=eastwest;newEdgeStyle={&quot;edgeStyle&quot;:&quot;elbowEdgeStyle&quot;,&quot;elbow&quot;:&quot;vertical&quot;,&quot;curved&quot;:0,&quot;rounded&quot;:0};" vertex="1" parent="bqDUDfRwrQbukF6TccsK-40">
          <mxGeometry x="50" y="900" width="10" height="40" as="geometry" />
        </mxCell>
        <mxCell id="bqDUDfRwrQbukF6TccsK-47" value="如果路由器规则不存在则抛路由器规则不存在异常" style="html=1;align=left;spacingLeft=2;endArrow=block;rounded=0;edgeStyle=orthogonalEdgeStyle;curved=0;rounded=0;" edge="1" target="bqDUDfRwrQbukF6TccsK-46" parent="bqDUDfRwrQbukF6TccsK-40">
          <mxGeometry relative="1" as="geometry">
            <mxPoint x="55" y="880" as="sourcePoint" />
            <Array as="points">
              <mxPoint x="55" y="890" />
              <mxPoint x="85" y="890" />
              <mxPoint x="85" y="910" />
            </Array>
          </mxGeometry>
        </mxCell>
        <mxCell id="bqDUDfRwrQbukF6TccsK-42" value="getRouterRule(ruleNo)根据规则编号获取路由器规则" style="html=1;verticalAlign=bottom;endArrow=block;edgeStyle=elbowEdgeStyle;elbow=vertical;curved=0;rounded=0;" edge="1" target="bqDUDfRwrQbukF6TccsK-41" parent="1" source="bqDUDfRwrQbukF6TccsK-29">
          <mxGeometry relative="1" as="geometry">
            <mxPoint x="975" y="840" as="sourcePoint" />
            <Array as="points">
              <mxPoint x="840" y="850" />
            </Array>
          </mxGeometry>
        </mxCell>
        <mxCell id="bqDUDfRwrQbukF6TccsK-43" value="return IRouterRule(实际返回RuleModel)" style="html=1;verticalAlign=bottom;endArrow=open;dashed=1;endSize=8;edgeStyle=elbowEdgeStyle;elbow=vertical;curved=0;rounded=0;" edge="1" source="bqDUDfRwrQbukF6TccsK-41" parent="1" target="bqDUDfRwrQbukF6TccsK-29">
          <mxGeometry relative="1" as="geometry">
            <mxPoint x="975" y="915" as="targetPoint" />
            <Array as="points">
              <mxPoint x="870" y="980" />
              <mxPoint x="730" y="910" />
            </Array>
          </mxGeometry>
        </mxCell>
        <mxCell id="bqDUDfRwrQbukF6TccsK-48" value="IRouter" style="shape=umlLifeline;perimeter=lifelinePerimeter;whiteSpace=wrap;html=1;container=1;dropTarget=0;collapsible=0;recursiveResize=0;outlineConnect=0;portConstraint=eastwest;newEdgeStyle={&quot;edgeStyle&quot;:&quot;elbowEdgeStyle&quot;,&quot;elbow&quot;:&quot;vertical&quot;,&quot;curved&quot;:0,&quot;rounded&quot;:0};" vertex="1" parent="1">
          <mxGeometry x="1170" y="30" width="100" height="1710" as="geometry" />
        </mxCell>
        <mxCell id="bqDUDfRwrQbukF6TccsK-49" value="" style="html=1;points=[];perimeter=orthogonalPerimeter;outlineConnect=0;targetShapes=umlLifeline;portConstraint=eastwest;newEdgeStyle={&quot;edgeStyle&quot;:&quot;elbowEdgeStyle&quot;,&quot;elbow&quot;:&quot;vertical&quot;,&quot;curved&quot;:0,&quot;rounded&quot;:0};" vertex="1" parent="bqDUDfRwrQbukF6TccsK-48">
          <mxGeometry x="45" y="1040" width="10" height="620" as="geometry" />
        </mxCell>
        <mxCell id="bqDUDfRwrQbukF6TccsK-52" value="" style="html=1;points=[];perimeter=orthogonalPerimeter;outlineConnect=0;targetShapes=umlLifeline;portConstraint=eastwest;newEdgeStyle={&quot;edgeStyle&quot;:&quot;elbowEdgeStyle&quot;,&quot;elbow&quot;:&quot;vertical&quot;,&quot;curved&quot;:0,&quot;rounded&quot;:0};" vertex="1" parent="bqDUDfRwrQbukF6TccsK-48">
          <mxGeometry x="50" y="1070" width="10" height="400" as="geometry" />
        </mxCell>
        <mxCell id="bqDUDfRwrQbukF6TccsK-53" value="initChnlList(RouterInboudData)初始化渠道列表方法" style="html=1;align=left;spacingLeft=2;endArrow=block;rounded=0;edgeStyle=orthogonalEdgeStyle;curved=0;rounded=0;" edge="1" target="bqDUDfRwrQbukF6TccsK-52" parent="bqDUDfRwrQbukF6TccsK-48">
          <mxGeometry relative="1" as="geometry">
            <mxPoint x="55" y="1050" as="sourcePoint" />
            <Array as="points">
              <mxPoint x="85" y="1080" />
            </Array>
          </mxGeometry>
        </mxCell>
        <mxCell id="bqDUDfRwrQbukF6TccsK-54" value="" style="html=1;points=[];perimeter=orthogonalPerimeter;outlineConnect=0;targetShapes=umlLifeline;portConstraint=eastwest;newEdgeStyle={&quot;edgeStyle&quot;:&quot;elbowEdgeStyle&quot;,&quot;elbow&quot;:&quot;vertical&quot;,&quot;curved&quot;:0,&quot;rounded&quot;:0};" vertex="1" parent="bqDUDfRwrQbukF6TccsK-48">
          <mxGeometry x="56" y="1130" width="10" height="40" as="geometry" />
        </mxCell>
        <mxCell id="bqDUDfRwrQbukF6TccsK-55" value="根据银行code,功能编号,渠道code，系统当前时间四个字段,联合查询&lt;br&gt;ipp_bkfc,ipp_chnl 表选出可用状态渠道 List&amp;lt;IppsComplex.C_SMRTLS&amp;gt;" style="html=1;align=left;spacingLeft=2;endArrow=block;rounded=0;edgeStyle=orthogonalEdgeStyle;curved=0;rounded=0;" edge="1" target="bqDUDfRwrQbukF6TccsK-54" parent="bqDUDfRwrQbukF6TccsK-48">
          <mxGeometry relative="1" as="geometry">
            <mxPoint x="61" y="1110" as="sourcePoint" />
            <Array as="points">
              <mxPoint x="91" y="1140" />
            </Array>
          </mxGeometry>
        </mxCell>
        <mxCell id="bqDUDfRwrQbukF6TccsK-56" value="" style="html=1;points=[];perimeter=orthogonalPerimeter;outlineConnect=0;targetShapes=umlLifeline;portConstraint=eastwest;newEdgeStyle={&quot;edgeStyle&quot;:&quot;elbowEdgeStyle&quot;,&quot;elbow&quot;:&quot;vertical&quot;,&quot;curved&quot;:0,&quot;rounded&quot;:0};" vertex="1" parent="bqDUDfRwrQbukF6TccsK-48">
          <mxGeometry x="55" y="1220" width="10" height="210" as="geometry" />
        </mxCell>
        <mxCell id="bqDUDfRwrQbukF6TccsK-57" value="如果RouterInboudData中的银行code不为空" style="html=1;align=left;spacingLeft=2;endArrow=block;rounded=0;edgeStyle=orthogonalEdgeStyle;curved=0;rounded=0;" edge="1" target="bqDUDfRwrQbukF6TccsK-56" parent="bqDUDfRwrQbukF6TccsK-48">
          <mxGeometry relative="1" as="geometry">
            <mxPoint x="60" y="1200" as="sourcePoint" />
            <Array as="points">
              <mxPoint x="90" y="1230" />
            </Array>
          </mxGeometry>
        </mxCell>
        <mxCell id="bqDUDfRwrQbukF6TccsK-58" value="" style="html=1;points=[];perimeter=orthogonalPerimeter;outlineConnect=0;targetShapes=umlLifeline;portConstraint=eastwest;newEdgeStyle={&quot;edgeStyle&quot;:&quot;elbowEdgeStyle&quot;,&quot;elbow&quot;:&quot;vertical&quot;,&quot;curved&quot;:0,&quot;rounded&quot;:0};" vertex="1" parent="bqDUDfRwrQbukF6TccsK-48">
          <mxGeometry x="61" y="1285" width="10" height="40" as="geometry" />
        </mxCell>
        <mxCell id="bqDUDfRwrQbukF6TccsK-59" value="根据银行code查询ipp_bcpk表获取所有记录" style="html=1;align=left;spacingLeft=2;endArrow=block;rounded=0;edgeStyle=orthogonalEdgeStyle;curved=0;rounded=0;" edge="1" target="bqDUDfRwrQbukF6TccsK-58" parent="bqDUDfRwrQbukF6TccsK-48">
          <mxGeometry relative="1" as="geometry">
            <mxPoint x="66" y="1265" as="sourcePoint" />
            <Array as="points">
              <mxPoint x="96" y="1295" />
            </Array>
          </mxGeometry>
        </mxCell>
        <mxCell id="bqDUDfRwrQbukF6TccsK-60" value="" style="html=1;points=[];perimeter=orthogonalPerimeter;outlineConnect=0;targetShapes=umlLifeline;portConstraint=eastwest;newEdgeStyle={&quot;edgeStyle&quot;:&quot;elbowEdgeStyle&quot;,&quot;elbow&quot;:&quot;vertical&quot;,&quot;curved&quot;:0,&quot;rounded&quot;:0};" vertex="1" parent="bqDUDfRwrQbukF6TccsK-48">
          <mxGeometry x="61" y="1365" width="10" height="40" as="geometry" />
        </mxCell>
        <mxCell id="bqDUDfRwrQbukF6TccsK-61" value="根据银行code过滤出银行code在ipp_bcpk中的渠道List&amp;lt;IppsComplex.C_SMRTLS&amp;gt;" style="html=1;align=left;spacingLeft=2;endArrow=block;rounded=0;edgeStyle=orthogonalEdgeStyle;curved=0;rounded=0;" edge="1" target="bqDUDfRwrQbukF6TccsK-60" parent="bqDUDfRwrQbukF6TccsK-48">
          <mxGeometry relative="1" as="geometry">
            <mxPoint x="66" y="1345" as="sourcePoint" />
            <Array as="points">
              <mxPoint x="96" y="1375" />
            </Array>
          </mxGeometry>
        </mxCell>
        <mxCell id="bqDUDfRwrQbukF6TccsK-62" value="" style="html=1;points=[];perimeter=orthogonalPerimeter;outlineConnect=0;targetShapes=umlLifeline;portConstraint=eastwest;newEdgeStyle={&quot;edgeStyle&quot;:&quot;elbowEdgeStyle&quot;,&quot;elbow&quot;:&quot;vertical&quot;,&quot;curved&quot;:0,&quot;rounded&quot;:0};" vertex="1" parent="bqDUDfRwrQbukF6TccsK-48">
          <mxGeometry x="51" y="1530" width="10" height="110" as="geometry" />
        </mxCell>
        <mxCell id="bqDUDfRwrQbukF6TccsK-63" value="如果RouterInboudData中的银行code为空&lt;br&gt;----&amp;gt;这种场景是存在的 s0070911人行行号转账" style="html=1;align=left;spacingLeft=2;endArrow=block;rounded=0;edgeStyle=orthogonalEdgeStyle;curved=0;rounded=0;" edge="1" target="bqDUDfRwrQbukF6TccsK-62" parent="bqDUDfRwrQbukF6TccsK-48">
          <mxGeometry relative="1" as="geometry">
            <mxPoint x="56" y="1510" as="sourcePoint" />
            <Array as="points">
              <mxPoint x="86" y="1540" />
            </Array>
          </mxGeometry>
        </mxCell>
        <mxCell id="bqDUDfRwrQbukF6TccsK-64" value="" style="html=1;points=[];perimeter=orthogonalPerimeter;outlineConnect=0;targetShapes=umlLifeline;portConstraint=eastwest;newEdgeStyle={&quot;edgeStyle&quot;:&quot;elbowEdgeStyle&quot;,&quot;elbow&quot;:&quot;vertical&quot;,&quot;curved&quot;:0,&quot;rounded&quot;:0};" vertex="1" parent="bqDUDfRwrQbukF6TccsK-48">
          <mxGeometry x="56" y="1575" width="10" height="40" as="geometry" />
        </mxCell>
        <mxCell id="bqDUDfRwrQbukF6TccsK-65" value="List&amp;lt;IppsComplex.C_SMRTLS&amp;gt;按照渠道code进行去重处理" style="html=1;align=left;spacingLeft=2;endArrow=block;rounded=0;edgeStyle=orthogonalEdgeStyle;curved=0;rounded=0;" edge="1" target="bqDUDfRwrQbukF6TccsK-64" parent="bqDUDfRwrQbukF6TccsK-48">
          <mxGeometry relative="1" as="geometry">
            <mxPoint x="61" y="1555" as="sourcePoint" />
            <Array as="points">
              <mxPoint x="91" y="1585" />
            </Array>
          </mxGeometry>
        </mxCell>
        <mxCell id="bqDUDfRwrQbukF6TccsK-50" value="getBstChannel(IRouterRule,RouterInboudData)" style="html=1;verticalAlign=bottom;endArrow=block;edgeStyle=elbowEdgeStyle;elbow=vertical;curved=0;rounded=0;" edge="1" target="bqDUDfRwrQbukF6TccsK-49" parent="1" source="bqDUDfRwrQbukF6TccsK-29">
          <mxGeometry relative="1" as="geometry">
            <mxPoint x="1145" y="1070" as="sourcePoint" />
            <Array as="points">
              <mxPoint x="750" y="1080" />
            </Array>
          </mxGeometry>
        </mxCell>
        <mxCell id="bqDUDfRwrQbukF6TccsK-51" value="return List&amp;lt;IppsComplex.C_SMRTLS&amp;gt;" style="html=1;verticalAlign=bottom;endArrow=open;dashed=1;endSize=8;edgeStyle=elbowEdgeStyle;elbow=horizontal;curved=0;rounded=0;" edge="1" source="bqDUDfRwrQbukF6TccsK-49" parent="1" target="bqDUDfRwrQbukF6TccsK-21">
          <mxGeometry relative="1" as="geometry">
            <mxPoint x="1145" y="1145" as="targetPoint" />
            <Array as="points">
              <mxPoint x="900" y="1680" />
            </Array>
          </mxGeometry>
        </mxCell>
        <mxCell id="bqDUDfRwrQbukF6TccsK-71" value="IRouterRule" style="shape=umlLifeline;perimeter=lifelinePerimeter;whiteSpace=wrap;html=1;container=1;dropTarget=0;collapsible=0;recursiveResize=0;outlineConnect=0;portConstraint=eastwest;newEdgeStyle={&quot;edgeStyle&quot;:&quot;elbowEdgeStyle&quot;,&quot;elbow&quot;:&quot;vertical&quot;,&quot;curved&quot;:0,&quot;rounded&quot;:0};" vertex="1" parent="1">
          <mxGeometry x="1360" y="30" width="100" height="2650" as="geometry" />
        </mxCell>
        <mxCell id="bqDUDfRwrQbukF6TccsK-72" value="" style="html=1;points=[];perimeter=orthogonalPerimeter;outlineConnect=0;targetShapes=umlLifeline;portConstraint=eastwest;newEdgeStyle={&quot;edgeStyle&quot;:&quot;elbowEdgeStyle&quot;,&quot;elbow&quot;:&quot;vertical&quot;,&quot;curved&quot;:0,&quot;rounded&quot;:0};" vertex="1" parent="bqDUDfRwrQbukF6TccsK-71">
          <mxGeometry x="45" y="1750" width="10" height="900" as="geometry" />
        </mxCell>
        <mxCell id="bqDUDfRwrQbukF6TccsK-75" value="" style="html=1;points=[];perimeter=orthogonalPerimeter;outlineConnect=0;targetShapes=umlLifeline;portConstraint=eastwest;newEdgeStyle={&quot;edgeStyle&quot;:&quot;elbowEdgeStyle&quot;,&quot;elbow&quot;:&quot;vertical&quot;,&quot;curved&quot;:0,&quot;rounded&quot;:0};" vertex="1" parent="bqDUDfRwrQbukF6TccsK-71">
          <mxGeometry x="50" y="1800" width="10" height="40" as="geometry" />
        </mxCell>
        <mxCell id="bqDUDfRwrQbukF6TccsK-76" value="根据ruleNo获取Tab_ipp_rules,不存在的话则抛异常" style="html=1;align=left;spacingLeft=2;endArrow=block;rounded=0;edgeStyle=orthogonalEdgeStyle;curved=0;rounded=0;" edge="1" target="bqDUDfRwrQbukF6TccsK-75" parent="bqDUDfRwrQbukF6TccsK-71">
          <mxGeometry relative="1" as="geometry">
            <mxPoint x="55" y="1780" as="sourcePoint" />
            <Array as="points">
              <mxPoint x="85" y="1810" />
            </Array>
          </mxGeometry>
        </mxCell>
        <mxCell id="bqDUDfRwrQbukF6TccsK-77" value="" style="html=1;points=[];perimeter=orthogonalPerimeter;outlineConnect=0;targetShapes=umlLifeline;portConstraint=eastwest;newEdgeStyle={&quot;edgeStyle&quot;:&quot;elbowEdgeStyle&quot;,&quot;elbow&quot;:&quot;vertical&quot;,&quot;curved&quot;:0,&quot;rounded&quot;:0};" vertex="1" parent="bqDUDfRwrQbukF6TccsK-71">
          <mxGeometry x="50" y="1880" width="10" height="40" as="geometry" />
        </mxCell>
        <mxCell id="bqDUDfRwrQbukF6TccsK-78" value="根据ruleNo规则编号查询规则过滤器列表Tab_ipp_rules_filters&lt;br&gt;按照优先级排序" style="html=1;align=left;spacingLeft=2;endArrow=block;rounded=0;edgeStyle=orthogonalEdgeStyle;curved=0;rounded=0;" edge="1" target="bqDUDfRwrQbukF6TccsK-77" parent="bqDUDfRwrQbukF6TccsK-71">
          <mxGeometry relative="1" as="geometry">
            <mxPoint x="55" y="1860" as="sourcePoint" />
            <Array as="points">
              <mxPoint x="85" y="1890" />
            </Array>
          </mxGeometry>
        </mxCell>
        <mxCell id="bqDUDfRwrQbukF6TccsK-79" value="" style="html=1;points=[];perimeter=orthogonalPerimeter;outlineConnect=0;targetShapes=umlLifeline;portConstraint=eastwest;newEdgeStyle={&quot;edgeStyle&quot;:&quot;elbowEdgeStyle&quot;,&quot;elbow&quot;:&quot;vertical&quot;,&quot;curved&quot;:0,&quot;rounded&quot;:0};" vertex="1" parent="bqDUDfRwrQbukF6TccsK-71">
          <mxGeometry x="50" y="1960" width="10" height="40" as="geometry" />
        </mxCell>
        <mxCell id="bqDUDfRwrQbukF6TccsK-80" value="循环获取对应filterNo对应的规则过滤器列表List&amp;lt;IPayRulesFilter&amp;gt;" style="html=1;align=left;spacingLeft=2;endArrow=block;rounded=0;edgeStyle=orthogonalEdgeStyle;curved=0;rounded=0;" edge="1" target="bqDUDfRwrQbukF6TccsK-79" parent="bqDUDfRwrQbukF6TccsK-71">
          <mxGeometry relative="1" as="geometry">
            <mxPoint x="55" y="1940" as="sourcePoint" />
            <Array as="points">
              <mxPoint x="85" y="1970" />
            </Array>
          </mxGeometry>
        </mxCell>
        <mxCell id="bqDUDfRwrQbukF6TccsK-73" value="getFilters(RouterInboudData)获取过滤器" style="html=1;verticalAlign=bottom;endArrow=block;edgeStyle=elbowEdgeStyle;elbow=vertical;curved=0;rounded=0;" edge="1" target="bqDUDfRwrQbukF6TccsK-72" parent="1" source="bqDUDfRwrQbukF6TccsK-21">
          <mxGeometry relative="1" as="geometry">
            <mxPoint x="1335" y="1780" as="sourcePoint" />
            <Array as="points">
              <mxPoint x="890" y="1790" />
            </Array>
          </mxGeometry>
        </mxCell>
        <mxCell id="bqDUDfRwrQbukF6TccsK-74" value="return List&amp;lt;IPayRulesFilter&amp;gt;&amp;nbsp;" style="html=1;verticalAlign=bottom;endArrow=open;dashed=1;endSize=8;edgeStyle=elbowEdgeStyle;elbow=vertical;curved=0;rounded=0;" edge="1" source="bqDUDfRwrQbukF6TccsK-72" parent="1" target="bqDUDfRwrQbukF6TccsK-29">
          <mxGeometry relative="1" as="geometry">
            <mxPoint x="1335" y="1855" as="targetPoint" />
            <Array as="points">
              <mxPoint x="960" y="2060" />
              <mxPoint x="900" y="1850" />
            </Array>
          </mxGeometry>
        </mxCell>
      </root>
    </mxGraphModel>
  </diagram>
</mxfile>
